<?xml version="1.0" encoding="utf-8"?>
<!-- Generator: Adobe Illustrator 23.1.0, SVG Export Plug-In . SVG Version: 6.00 Build 0)  -->
<svg version="1.1" id="Ebene_1" xmlns="http://www.w3.org/2000/svg" xmlns:xlink="http://www.w3.org/1999/xlink" x="0px" y="0px"
	 viewBox="0 0 1500 1000" style="enable-background:new 0 0 1500 1000;" xml:space="preserve">
<style type="text/css">
	.st0{display:none;}
	.st1{display:inline;fill:#FFFFFF;stroke:#000000;stroke-miterlimit:10;}
	.st2{display:inline;fill:#7CD438;}
	.st3{display:inline;fill:#E33D54;}
	.st4{fill:#A60D05;}
	.st5{fill:#D31E14;}
	.st6{fill:#10A422;}
	.st7{fill:#C9132C;}
	.st8{fill:#C1272D;}
	.st9{fill:#EF4840;}
	.st10{fill:#95052E;}
	.st11{fill:#9E051A;}
	.st12{fill:#B10D24;}
	.st13{fill:#A62905;}
	.st14{fill:#E73128;}
	.st15{fill:#BA160E;}
	.st16{fill:#96052C;}
	.st17{fill:#BF1241;}
	.st18{fill:#FFFFFF;}
</style>
<g id="Background" class="st0">
	<rect x="-0.7" y="1" class="st1" width="1500" height="1000"/>
</g>
<g id="BackgroundCloud" class="st0">
	<polygon class="st2" points="276.9,719.7 334.2,777 331.1,676.4 	"/>
	<polygon class="st3" points="267.3,652.8 327.7,740.7 395,667.2 	"/>
	<polygon class="st2" points="318,571.5 256.3,626.3 228.7,581.7 	"/>
	<polygon class="st2" points="222.9,379.4 175.1,453.4 259.7,445.2 259.3,391.6 	"/>
	<polygon class="st3" points="244.3,554.6 296.4,633.5 338.2,576.7 291.3,497.4 	"/>
	<polygon class="st2" points="224.1,479.8 239.6,545.1 333.7,495 	"/>
	<polygon class="st3" points="250.6,523.3 300.4,462.1 215.6,390.8 	"/>
	<polygon class="st2" points="302.7,592.4 273.3,633.5 291.3,676.4 373.1,646.2 	"/>
	<polygon class="st2" points="244.3,384 169.6,358.4 191,342.6 236.2,317.4 	"/>
	<polygon class="st3" points="194.8,288 202.5,350.7 246.2,337 259.7,283.4 246.2,267.8 	"/>
	<polygon class="st2" points="226,204.9 208.5,262 232.1,293 255.9,238.3 248.3,189 	"/>
	<polygon class="st3" points="309.2,258.8 210.2,199.8 259.7,181.4 	"/>
	<polygon class="st2" points="278.8,171.9 277.2,221 337.7,256.3 331.3,222.5 	"/>
	<polygon class="st3" points="361.4,138.2 296.7,157.8 352.5,237.8 372.5,192.6 	"/>
	<polygon class="st2" points="414.7,126.5 364.3,173.3 388.1,220.1 430.7,186 	"/>
	<polygon class="st3" points="490.7,178.7 451.8,249.9 419.2,222.5 419.2,188.6 417.3,173.3 	"/>
	<polygon class="st3" points="469.9,267.8 459.6,200.9 505.6,203.5 513.1,237.8 	"/>
	<polygon class="st3" points="492.1,237.8 564.3,258.8 496.2,331.6 508.9,280.1 	"/>
	<polygon class="st3" points="492.1,314.9 522.4,364.3 552.5,342.6 542.4,312.7 	"/>
</g>
<g id="Fonts">
	<g id="Shatten">
		<g>
			<rect x="912.7" y="864.9" class="st4" width="3.7" height="18.4"/>
			<path class="st4" d="M916.4,883.3l11.2-18.4l-0.2-0.5c0,0-14.8-0.2-14.8-0.2l0.1,19C912.7,883.3,916.5,883.2,916.4,883.3z"/>
			<rect x="912.6" y="862.9" class="st4" width="15.1" height="1.9"/>
		</g>
		<g>
			<polygon class="st4" points="1491.8,672.6 1489.4,668.7 1466.7,677.4 1472.5,693.3 1479.2,691.4 1480.5,691 			"/>
			<polygon class="st4" points="1480.5,691 1491.8,672.6 1474,679.6 			"/>
		</g>
		<g>
			<polygon class="st4" points="1218.5,672.6 1216.2,668.7 1193.4,677.4 1199.2,693.3 1206,691.4 1207.2,691 			"/>
			<polygon class="st4" points="1207.2,691 1218.5,672.6 1200.7,679.6 			"/>
		</g>
		<g>
			<polygon class="st4" points="453.5,883.3 451.4,883.3 451.4,864.9 457.9,864.9 			"/>
			<polyline class="st4" points="453.5,883.3 464.8,864.9 453.5,864.9 453.5,883.3 			"/>
			<polygon class="st4" points="451.4,864.9 451.4,861.7 464.8,861.7 464.8,864.9 			"/>
		</g>
		<g>
			<polygon class="st4" points="394.5,510.4 383.3,510.4 383.3,511.8 394.5,511.6 			"/>
			<polyline class="st4" points="383.3,510.4 394.5,492 394.5,510.4 383.3,510.4 			"/>
			<rect x="394.5" y="492" class="st4" width="2.5" height="19.8"/>
		</g>
		<g>
			<path class="st4" d="M952.6,804l11.2-18.4c0,0,2.3,6.1,5.5,12.6L952.6,804z"/>
			<path class="st4" d="M952.6,804c0,0,2.1,5.4,2.6,6.2l34.8-10.9l-9.1-19.3l-17.1,5.5L952.6,804z"/>
		</g>
		<g>
			<path class="st4" d="M1225.9,804l11.2-18.4c0,0,2.3,6.1,5.5,12.6L1225.9,804z"/>
			<path class="st4" d="M1225.9,804c0,0,2.1,5.4,2.6,6.2l34.8-10.9l-9.1-19.3l-17.1,5.5L1225.9,804z"/>
		</g>
		<g>
			<polygon class="st4" points="748.7,697.6 749.4,693.9 737.8,691.2 725.5,696.1 722.6,710.6 737.5,716 			"/>
			<path class="st4" d="M737.5,716l11.2-18.4l-4.4-1.5C744.3,696.1,738.9,704.9,737.5,716z"/>
		</g>
	</g>
	<g>
		<g>
			<path class="st4" d="M536.7,510.4c70.3,0,119.4,46.8,119.4,118.3s-50.6,118.3-119.4,118.3h-83v136.3h-70.3V510.4H536.7z
				 M453.6,682.9h76.1c33.6,0,55.9-21.3,55.9-54.3c0-33-22.4-54.3-55.9-54.3h-76.1V682.9z"/>
			<path class="st4" d="M801.9,611.7c69.2,0,114.5,38.8,114.5,105v166.6h-64.9v-34.1h-5.4c-8.6,15.5-29.3,41.6-81,41.6
				c-54.3,0-94.8-28.2-94.8-78.3c0-50.1,41.6-72.9,97-81.5l83-12.8v-6.4c0-25.6-14.9-46.8-51.1-46.8s-55.4,21.3-61.8,51.1L673,694.1
				C691.1,650.5,732.7,611.7,801.9,611.7z M780.6,839.6c42.5,0,69.8-27.6,69.8-67.1v-6.9l-75.7,11.7c-24,3.7-37.3,14.4-37.3,31.4
				C737.5,825.8,750.8,839.6,780.6,839.6z"/>
			<path class="st4" d="M1074,611.7c61.8,0,107.6,30.4,133.2,79.4l-59.7,24c-13.8-41-45.9-51.1-72.4-51.1
				c-26.7,0-43.1,9.1-43.1,26.1c0,17,13.8,24,42.5,29.8l26.7,5.4c54.3,10.6,102.8,27.2,102.8,81.5c0,54.3-47.9,84.1-112.9,84.1
				c-66,0-116.6-29.8-138.4-86.8l60.8-21.3c12.3,44.2,43.7,55.9,76.7,55.9c33,0,49-11.7,49-28.7s-14.9-22.4-45.9-28.7l-26.7-5.4
				c-55.4-11.2-99.6-33.6-99.6-83.6S1012.3,611.7,1074,611.7z"/>
			<path class="st4" d="M1347.3,611.7c61.8,0,107.6,30.4,133.2,79.4l-59.7,24c-13.8-41-45.9-51.1-72.4-51.1
				c-26.7,0-43.1,9.1-43.1,26.1c0,17,13.8,24,42.5,29.8l26.7,5.4c54.3,10.6,102.8,27.2,102.8,81.5c0,54.3-47.9,84.1-112.9,84.1
				c-66,0-116.6-29.8-138.4-86.8l60.8-21.3c12.3,44.2,43.7,55.9,76.7,55.9c33,0,49-11.7,49-28.7s-14.9-22.4-45.9-28.7l-26.7-5.4
				c-55.4-11.2-99.6-33.6-99.6-83.6S1285.5,611.7,1347.3,611.7z"/>
		</g>
		<g>
			<path class="st5" d="M547.8,492c70.3,0,119.4,46.8,119.4,118.3s-50.6,118.3-119.4,118.3h-83v136.3h-70.3V492H547.8z M464.8,664.6
				h76.1c33.6,0,55.9-21.3,55.9-54.3c0-33-22.4-54.4-55.9-54.4h-76.1L464.8,664.6L464.8,664.6z"/>
			<path class="st5" d="M813.1,593.1c69.2,0,114.5,38.8,114.5,105v166.7h-64.9v-34.1h-5.4c-8.6,15.5-29.3,41.6-81,41.6
				c-54.3,0-94.8-28.2-94.8-78.3c0-50.1,41.6-72.9,97-81.5l83-12.8v-6.4c0-25.6-14.9-46.8-51.1-46.8s-55.4,21.3-61.8,51.1
				l-64.5-21.8C702.3,632.1,743.9,593.1,813.1,593.1z M791.8,821.2c42.5,0,69.8-27.6,69.8-67.1v-6.9l-75.7,11.7
				c-24,3.7-37.3,14.4-37.3,31.4C748.7,807.3,762,821.2,791.8,821.2z"/>
			<path class="st5" d="M1085.4,593.1c61.8,0,107.6,30.4,133.2,79.4l-59.7,24c-13.8-41-45.9-51.1-72.4-51.1
				c-26.7,0-43.1,9.1-43.1,26.1c0,17,13.8,24,42.5,29.8l26.7,5.4c54.3,10.6,102.8,27.2,102.8,81.5c0,54.3-47.9,84.1-112.9,84.1
				c-66,0-116.6-29.8-138.4-86.8l60.8-21.3c12.3,44.2,43.7,55.9,76.7,55.9c33,0,49-11.7,49-28.7c0-17-14.9-22.4-45.9-28.7l-26.7-5.4
				c-55.4-11.2-99.6-33.6-99.6-83.6C978.4,624,1023.5,593.1,1085.4,593.1z"/>
			<path class="st5" d="M1358.6,593.1c61.8,0,107.6,30.4,133.2,79.4l-59.7,24c-13.8-41-45.9-51.1-72.4-51.1
				c-26.7,0-43.1,9.1-43.1,26.1c0,17,13.8,24,42.5,29.8l26.7,5.4c54.3,10.6,102.8,27.2,102.8,81.5c0,54.3-47.9,84.1-112.9,84.1
				c-66,0-116.6-29.8-138.4-86.8l60.8-21.3c12.3,44.2,43.7,55.9,76.7,55.9c33,0,49-11.7,49-28.7c0-17-14.9-22.4-45.9-28.7l-26.7-5.4
				c-55.4-11.2-99.6-33.6-99.6-83.6C1251.7,624,1296.7,593.1,1358.6,593.1z"/>
		</g>
	</g>
	<g>
		<path class="st6" d="M493.1,415.5c-9.4,0-16.3-7.6-16.3-16.6V222.6c0-9.1,6.9-16.6,16.3-16.6h109.3c1.5,0,2.8,0.6,3.6,1.5
			c1,1.2,1.5,2.5,1.5,3.9c0,2.8-2.5,5.1-5.1,5.1h-63c-3,0-5.4,1-7.3,3c-2.1,2.1-3,4.6-3,7.3v72.4c0,2.8,1,5.1,3,7.3
			c1.8,2.1,4.3,3,7.3,3H576c3,0.6,5.1,1.8,5.1,5.1c0,2.8-2.5,5.1-5.1,5.1h-36.6c-3,0-5.4,1-7.3,3c-2.1,2.1-3,4.6-3,7.3v64.5
			c0,2.8,1,5.1,3,7.3c1.8,2.1,4.3,3,7.3,3h63c2.8,0,5.1,2.5,5.1,5.1c0,3-2.1,5.4-5.1,5.4H493.1V415.5z"/>
		<path class="st6" d="M776.3,409.1c0.3,0.3,0.3,1.2,0.3,2.8c-0.3,1.5-1.5,2.8-3.6,3.6c-3.3,0.3-4.6-0.3-5.1-1.5
			c-1-1-1.2-1.8-1.5-2.1c0-0.3-0.6-2.5-1.5-5.8c-1.2-3.3-2.5-7.3-3.6-11.5c-1.5-4.6-3-9.9-4.8-16c-1-3.3-2.8-5.8-5.4-7.9
			c-2.8-1.8-5.8-2.8-9.1-2.8h-42c-3.3,0-6.4,1-9.1,2.8c-2.8,2.1-4.6,4.6-5.4,7.9l-8.2,27.9c-1.8,5.1-6.1,8.4-11.5,8.4h-30
			c-3.9,0-7.3-1.5-9.4-4.8c-2.5-3-3-6.4-1.8-10.2l55.7-185.5c1.8-4.8,5.8-8.4,11.2-8.4h15.2c6.1,0,9.9,2.8,11.5,8.4L776.3,409.1z
			 M741.8,357.3c2.1,0,3.6-1,4.8-2.5c1.2-1.5,1.5-3.3,1-5.4l-20.9-69.9c-1-2.8-3-4.3-6.1-4.3c-2.8,0-4.8,1.5-5.8,4.3L694,349.5
			c-0.6,2.1-0.3,3.9,1,5.4c1.2,1.5,2.8,2.5,4.8,2.5H741.8z"/>
		<path class="st6" d="M846,416c-18.5,0-34.5-6.6-47.5-19.6c-1-1-2.1-4.3-2.1-5.8c0-1.8,2.8-4.3,4.6-4.3c1.2,0,2.5,0.3,3.6,1.2
			c11.2,10.9,25.7,17.8,41.4,17.8c7.6,0,13.3-1,13.3-9.7v-94.4c0-5.1-2.1-7.9-6.6-8.4c-1-0.3-2.1-0.3-3.3-0.3H846
			c-11.7,0-23.9-4.8-32-13.7c-8.8-8.2-13.7-20.3-13.7-32c0-25.7,20.6-45.7,45.7-45.7c12.2,0,23.9,4.6,32,13.3
			c1.2,1.2,2.5,3.3,2.5,5.1c-0.3,1-1,2.1-2.1,3c-1,1-1.8,1.2-3.3,1.2c-1,0-2.1-0.3-3-1c-7.9-7.9-16-11.2-26-11.2
			c-19.3,0-35.1,15.7-35.1,35.1s16,34.8,35.1,34.8c37.2,0,67.1,29.7,67.1,67.1C913.1,386.3,883.1,416,846,416z"/>
		<path class="st6" d="M1039.6,320.2c-2.5,5.1-3.6,10.6-3.6,16.6v62.3c0,9.4-7.3,16.6-16.6,16.6h-19.3c-9.4,0-16.3-7.6-16.3-16.6
			v-62.3c0-5.4-1.2-11.2-3.9-17l-49.6-106.5c-0.3-1-0.6-1.8-0.6-2.8c0-1,0-1.8,0.3-2.8c0.3-0.6,1-1.2,1.8-1.8c1.2-0.6,2.1-1,3-1
			c2.1,0,4.8,1.8,5.4,3.9c0.3,0.3,1.2,2.5,3,6.4c5.4,12.7,11.5,25.4,17.5,38.1c3.9,8.2,7.6,16.6,11.5,25.1
			c9.4,20.3,19.6,43,31.5,68.1c1.2,2.5,3,3.6,5.8,3.6c3,0,4.8-1.2,5.8-3.6l63.5-137.7c0.3-0.3,0.6-1.2,1.5-2.1
			c0.6-1,1.8-1.5,3.3-1.5c3,0,5.1,1.5,5.8,4.8c0,1,0,1.8-0.3,2.8L1039.6,320.2z"/>
	</g>
</g>
<g id="Layer_1">
	<g id="Fertiger_x5F_Schluessel_1_">
		<g id="Schuessel_x5F_ganz_1_">
			<g id="Grundlayout_1_">
				<g>
					<polygon class="st7" points="277.5,493.4 277.5,876.6 218.6,929.3 218.6,526.4 					"/>
					<polygon class="st4" points="160.4,493.4 160.4,876.6 218.6,929.3 218.6,526.4 					"/>
				</g>
				<g>
					<polygon class="st8" points="218.6,67.6 19.3,179.1 19.3,414.3 218.6,526.4 					"/>
					<polygon class="st8" points="218.6,67.6 417.9,179.1 417.9,414.3 218.6,526.4 					"/>
				</g>
				<g>
					<polygon class="st8" points="277.5,638.6 322.1,682.7 277.5,727.1 					"/>
					<polyline class="st8" points="277.5,802 277.5,713.5 322.1,757.4 					"/>
					<polyline class="st9" points="277.5,876.5 277.5,802 284.5,795 322.1,832 					"/>
				</g>
			</g>
			<g id="Verschoenerung_1_">
				<g id="SchluesselKopf_2_">
					<g>
						<polygon class="st10" points="218.6,114.8 19.3,179.1 218.6,67.6 						"/>
						<polygon class="st10" points="19.3,179.1 19.3,414.3 79.1,363.1 						"/>
						<polygon class="st11" points="79.1,363.1 19.3,179.1 139.5,244.9 						"/>
						<polygon class="st4" points="139.5,244.9 218.6,114.8 19.3,179.1 						"/>
						<polygon class="st4" points="79.1,363.1 218.6,526.4 19.3,414.3 						"/>
						<polygon class="st12" points="139.5,244.9 218.6,287.8 218.6,114.8 						"/>
						<polygon class="st13" points="79.1,363.1 218.5,401.3 218.6,526.4 						"/>
						<polygon class="st11" points="79.1,363.1 139.5,244.9 218.6,287.8 218.5,401.3 						"/>
					</g>
					<g>
						<polygon class="st11" points="218.6,114.8 417.9,179.1 218.6,67.6 						"/>
						<polygon class="st14" points="417.9,179.1 417.9,414.3 358.2,363.1 						"/>
						<polygon class="st5" points="358.2,363.1 417.9,179.1 297.7,244.9 						"/>
						<polygon class="st4" points="297.7,244.9 218.6,114.8 417.9,179.1 						"/>
						<polygon class="st9" points="358.2,363.1 218.6,526.4 417.9,414.3 						"/>
						<polygon class="st12" points="297.7,244.9 218.6,287.8 218.6,114.8 						"/>
						<polygon class="st5" points="358.2,363.1 218.6,401.3 218.6,526.4 						"/>
						<polygon class="st7" points="358.2,363.1 297.7,244.9 218.6,287.8 218.6,401.3 						"/>
					</g>
				</g>
				<g id="Unten_2_">
					<polyline class="st5" points="322.1,682.7 218.6,580.3 218.6,654.3 284.5,720.2 322.1,682.7 					"/>
					<polygon class="st15" points="284.5,720.2 218.6,785.7 218.5,654.3 					"/>
					<polyline class="st14" points="322.1,757.4 218.6,861.1 218.6,785.7 284.5,720.2 322.1,757.4 					"/>
					<polygon class="st16" points="218.6,526.4 160.9,584 160.9,493.4 					"/>
					<polygon class="st17" points="182.7,896.9 218.6,861.1 218.6,929.3 					"/>
					<polygon class="st14" points="277.5,638.6 277.5,713.5 284.5,720.2 322.1,682.7 					"/>
				</g>
			</g>
		</g>
		<g id="Schloss_1_">
			<path class="st18" d="M271.3,295.6v-50.3c0-29.1-23.6-52.8-52.8-52.8s-52.8,23.6-52.8,52.8v50.3c-19.3,15.5-31.6,39.2-31.6,65.9
				c0,46.7,37.9,84.5,84.5,84.5s84.5-37.9,84.5-84.5C303.1,334.8,290.6,311.1,271.3,295.6z M186.9,245.3c0-17.4,14.2-31.6,31.6-31.6
				s31.6,14.2,31.6,31.6v37.9c-9.8-4-20.4-6.2-31.6-6.2c-11.2,0-22,2.2-31.6,6.2V245.3z M218.5,424.9c-35,0-63.4-28.5-63.4-63.4
				s28.5-63.4,63.4-63.4s63.4,28.5,63.4,63.4C281.9,396.4,253.5,424.9,218.5,424.9z M239.6,361.5c0,11.6-9.5,21.1-21.1,21.1
				c-11.6,0-21.1-9.5-21.1-21.1s9.5-21.1,21.1-21.1C230.3,340.3,239.6,349.9,239.6,361.5z"/>
		</g>
	</g>
</g>
</svg>
