<?xml version="1.0" encoding="utf-8"?>
<!-- Generator: Adobe Illustrator 23.1.0, SVG Export Plug-In . SVG Version: 6.00 Build 0)  -->
<svg version="1.1" xmlns="http://www.w3.org/2000/svg" xmlns:xlink="http://www.w3.org/1999/xlink" x="0px" y="0px"
	 viewBox="0 0 1000 1000" style="enable-background:new 0 0 1000 1000;" xml:space="preserve">
<style type="text/css">
	.st0{display:none;fill:#FFFFFF;stroke:#000000;stroke-miterlimit:10;}
	.st1{fill:#9DD4F1;}
	.st2{fill:#B7E1F7;}
	.st3{fill:#C9132C;}
	.st4{fill:#A60D05;}
	.st5{fill:#C1272D;}
	.st6{fill:#EF4840;}
	.st7{fill:#95052E;}
	.st8{fill:#9E051A;}
	.st9{fill:#B10D24;}
	.st10{fill:#A62905;}
	.st11{fill:#E73128;}
	.st12{fill:#D31E14;}
	.st13{fill:#BA160E;}
	.st14{fill:#96052C;}
	.st15{fill:#BF1241;}
	.st16{fill:#FFFFFF;}
	.st17{fill:#D2EDFC;}
	.st18{display:none;}
</style>
<g id="Background">
	<rect class="st0" width="1000" height="1000"/>
	<g>
		<path id="MobileMe" class="st1" d="M867.5,230.7c0,47-37.8,85.1-84.4,85.1H521.8c-46.6,0-84.4-38.1-84.4-85.1
			c0-42.4,30.8-77.6,71.2-84c-0.5-3-0.8-6-0.8-9.2c0-29.8,24-53.9,53.5-53.9c13.2,0,25.3,4.8,34.6,12.8
			c16.6-37.7,37.9-72.1,97.7-72.1c72.5,0,106.8,56.3,106.8,115.7c0,2.5-0.1,4.9-0.3,7.4C838.6,155.3,867.5,189.6,867.5,230.7z"/>
	</g>
	<g>
		<path id="MobileMe_2_" class="st2" d="M498.3,227.2c0,41.1-33,74.3-73.8,74.3H196.1c-40.7,0-73.8-33.3-73.8-74.3
			c0-37.1,26.9-67.8,62.2-73.4c-0.4-2.6-0.7-5.3-0.7-8c0-26,20.9-47.1,46.8-47.1c11.5,0,22.1,4.2,30.2,11.2c14.5-33,33.1-63,85.3-63
			c63.3,0,93.3,49.2,93.3,101.1c0,2.2-0.1,4.3-0.2,6.5C472.9,161.2,498.3,191.2,498.3,227.2z"/>
	</g>
</g>
<g id="Fertiger_x5F_Schluessel">
	<g id="Schuessel_x5F_ganz">
		<g id="Grundlayout">
			<g>
				<polygon class="st3" points="561.3,496.6 561.3,894.9 500,949.5 500,530.9 				"/>
				<polygon class="st4" points="439.5,496.6 439.5,894.9 500,949.5 500,530.9 				"/>
			</g>
			<g>
				<polygon class="st5" points="500,54 292.9,169.9 292.9,414.4 500,530.9 				"/>
				<polygon class="st5" points="500,54 707.1,169.9 707.1,414.4 500,530.9 				"/>
			</g>
			<g>
				<polygon class="st5" points="561.3,647.5 607.6,693.3 561.3,739.6 				"/>
				<polyline class="st5" points="561.3,817.3 561.3,725.3 607.6,771 				"/>
				<polyline class="st6" points="561.3,894.8 561.3,817.3 568.6,810 607.6,848.5 				"/>
			</g>
		</g>
		<g id="Verschoenerung">
			<g id="SchluesselKopf_2_">
				<g>
					<polygon class="st7" points="500,103 292.9,169.9 500,54 					"/>
					<polygon class="st7" points="292.9,169.9 292.9,414.4 355,361.3 					"/>
					<polygon class="st8" points="355,361.3 292.9,169.9 417.8,238.3 					"/>
					<polygon class="st4" points="417.8,238.3 500,103 292.9,169.9 					"/>
					<polygon class="st4" points="355,361.3 500,530.9 292.9,414.4 					"/>
					<polygon class="st9" points="417.8,238.3 500,283 500,103 					"/>
					<polygon class="st10" points="355,361.3 499.9,400.9 500,530.9 					"/>
					<polygon class="st8" points="355,361.3 417.8,238.3 500,283 499.9,400.9 					"/>
				</g>
				<g>
					<polygon class="st8" points="500,103 707.1,169.9 500,54 					"/>
					<polygon class="st11" points="707.1,169.9 707.1,414.4 645,361.3 					"/>
					<polygon class="st12" points="645,361.3 707.1,169.9 582.2,238.3 					"/>
					<polygon class="st4" points="582.2,238.3 500,103 707.1,169.9 					"/>
					<polygon class="st6" points="645,361.3 500,530.9 707.1,414.4 					"/>
					<polygon class="st9" points="582.2,238.3 500,283 500,103 					"/>
					<polygon class="st12" points="645,361.3 500.1,400.9 500,530.9 					"/>
					<polygon class="st3" points="645,361.3 582.2,238.3 500,283 500.1,400.9 					"/>
				</g>
			</g>
			<g id="Unten_2_">
				<polyline class="st12" points="607.6,693.3 500,586.8 500,663.9 568.5,732.4 607.6,693.3 				"/>
				<polygon class="st13" points="568.5,732.4 500,800.4 499.9,663.9 				"/>
				<polyline class="st11" points="607.6,771 500,878.8 500,800.4 568.5,732.4 607.6,771 				"/>
				<polygon class="st14" points="500,530.9 440.1,590.8 440.1,496.6 				"/>
				<polygon class="st15" points="462.8,915.9 500,878.8 500,949.5 				"/>
				<polygon class="st11" points="561.3,647.5 561.3,725.3 568.5,732.4 607.6,693.3 				"/>
			</g>
		</g>
	</g>
	<g id="Schloss">
		<path class="st16" d="M554.8,291v-52.3c0-30.3-24.6-54.9-54.9-54.9c-30.3,0-54.9,24.6-54.9,54.9V291
			c-20.1,16.1-32.9,40.8-32.9,68.5c0,48.5,39.3,87.9,87.9,87.9c48.5,0,87.9-39.3,87.9-87.9C587.8,331.8,574.9,307.1,554.8,291z
			 M467,238.7c0-18.2,14.8-32.9,32.9-32.9s32.9,14.8,32.9,32.9v39.4c-10.2-4.1-21.3-6.4-32.9-6.4c-11.7,0-22.8,2.3-32.9,6.4V238.7z
			 M499.9,425.4c-36.3,0-65.9-29.6-65.9-65.9s29.6-65.9,65.9-65.9s65.9,29.6,65.9,65.9S536.3,425.4,499.9,425.4z M521.9,359.5
			c0,12.1-9.8,22-22,22s-22-9.8-22-22c0-12.1,9.8-22,22-22S521.9,347.4,521.9,359.5z"/>
	</g>
</g>
<g id="Wolke">
	<g>
		<path id="MobileMe_1_" class="st17" d="M190.1,475.5c-0.1-1.9-0.2-3.9-0.2-5.9c0-47.2,19.1-81.3,66.4-85.4
			c47.2-4,82.7,20.8,95.9,50.8c7.4-6.3,24.8-9.6,34.5-6.8c22.6,6.4,34,20,35.4,39.4c0.2,2.5-0.2,4.9-0.6,7.3
			c32,5.1,56.5,33,56.5,66.7c0,37.3-30,67.5-67,67.5H203.6c-37,0-67-30.2-67-67.5C136.6,509.1,159.6,481.8,190.1,475.5z"/>
	</g>
</g>
<g id="Layer_3" class="st18">
	
		<image style="overflow:visible;opacity:0.52;" width="261" height="480" xlink:href="1DF89A42.jpg"  transform="matrix(1 0 0 1 369.5 287.2727)">
	</image>
</g>
</svg>
