<?xml version="1.0" encoding="utf-8"?>
<!-- Generator: Adobe Illustrator 23.1.0, SVG Export Plug-In . SVG Version: 6.00 Build 0)  -->
<svg version="1.1" id="Ebene_1" xmlns="http://www.w3.org/2000/svg" xmlns:xlink="http://www.w3.org/1999/xlink" x="0px" y="0px"
	 viewBox="0 0 1500 1000" style="enable-background:new 0 0 1500 1000;" xml:space="preserve">
<style type="text/css">
	.st0{display:none;}
	.st1{display:inline;fill:#FFFFFF;stroke:#000000;stroke-miterlimit:10;}
	.st2{display:inline;fill:#7CD438;}
	.st3{display:inline;fill:#E33D54;}
	.st4{fill:#A60D05;}
	.st5{fill:#D31E14;}
	.st6{fill:#10A422;}
	.st7{fill:#C9132C;}
	.st8{fill:#C1272D;}
	.st9{fill:#EF4840;}
	.st10{fill:#95052E;}
	.st11{fill:#9E051A;}
	.st12{fill:#B10D24;}
	.st13{fill:#A62905;}
	.st14{fill:#E73128;}
	.st15{fill:#BA160E;}
	.st16{fill:#96052C;}
	.st17{fill:#BF1241;}
	.st18{fill:#FFFFFF;}
	.st19{fill:#17A338;}
</style>
<g id="Background" class="st0">
	<rect x="-0.7" y="1" class="st1" width="1500" height="1000"/>
</g>
<g id="BackgroundCloud" class="st0">
	<polygon class="st2" points="276.9,719.7 334.2,777 331.1,676.4 	"/>
	<polygon class="st3" points="267.3,652.8 327.7,740.7 395,667.2 	"/>
	<polygon class="st2" points="318,571.5 256.3,626.3 228.7,581.7 	"/>
	<polygon class="st2" points="222.9,379.4 175.1,453.4 259.7,445.2 259.3,391.6 	"/>
	<polygon class="st3" points="244.3,554.6 296.4,633.5 338.2,576.7 291.3,497.4 	"/>
	<polygon class="st2" points="224.1,479.8 239.6,545.1 333.7,495 	"/>
	<polygon class="st3" points="250.6,523.3 300.4,462.1 215.6,390.8 	"/>
	<polygon class="st2" points="302.7,592.4 273.3,633.5 291.3,676.4 373.1,646.2 	"/>
	<polygon class="st2" points="244.3,384 169.6,358.4 191,342.6 236.2,317.4 	"/>
	<polygon class="st3" points="194.8,288 202.5,350.7 246.2,337 259.7,283.4 246.2,267.8 	"/>
	<polygon class="st2" points="226,204.9 208.5,262 232.1,293 255.9,238.3 248.3,189 	"/>
	<polygon class="st3" points="309.2,258.8 210.2,199.8 259.7,181.4 	"/>
	<polygon class="st2" points="278.8,171.9 277.2,221 337.7,256.3 331.3,222.5 	"/>
	<polygon class="st3" points="361.4,138.2 296.7,157.8 352.5,237.8 372.5,192.6 	"/>
	<polygon class="st2" points="414.7,126.5 364.3,173.3 388.1,220.1 430.7,186 	"/>
	<polygon class="st3" points="490.7,178.7 451.8,249.9 419.2,222.5 419.2,188.6 417.3,173.3 	"/>
	<polygon class="st3" points="469.9,267.8 459.6,200.9 505.6,203.5 513.1,237.8 	"/>
	<polygon class="st3" points="492.1,237.8 564.3,258.8 496.2,331.6 508.9,280.1 	"/>
	<polygon class="st3" points="492.1,314.9 522.4,364.3 552.5,342.6 542.4,312.7 	"/>
</g>
<g>
	<g id="Fonts">
		<g id="Shatten">
			<g>
				<rect x="873.5" y="772.2" class="st4" width="2.8" height="13.8"/>
				<path class="st4" d="M876.3,786l8.4-13.8l-0.2-0.4c0,0-11.1-0.1-11.1-0.1l0.1,14.3C873.5,786,876.4,785.9,876.3,786z"/>
				<rect x="873.4" y="770.7" class="st4" width="11.3" height="1.5"/>
			</g>
			<g>
				<polygon class="st4" points="1308.3,627.8 1306.5,624.9 1289.4,631.4 1293.8,643.4 1298.9,641.9 1299.8,641.6 				"/>
				<polygon class="st4" points="1299.8,641.6 1308.3,627.8 1294.9,633.1 				"/>
			</g>
			<g>
				<polygon class="st4" points="1103.2,627.8 1101.4,624.9 1084.3,631.4 1088.6,643.4 1093.7,641.9 1094.6,641.6 				"/>
				<polygon class="st4" points="1094.6,641.6 1103.2,627.8 1089.8,633.1 				"/>
			</g>
			<g>
				<polygon class="st4" points="528.8,786 527.2,786 527.2,772.2 532.1,772.2 				"/>
				<polyline class="st4" points="528.8,786 537.3,772.2 528.8,772.2 528.8,786 				"/>
				<polygon class="st4" points="527.2,772.2 527.2,769.8 537.3,769.8 537.3,772.2 				"/>
			</g>
			<g>
				<polygon class="st4" points="484.5,506.1 476.1,506.1 476.1,507.1 484.5,507 				"/>
				<polyline class="st4" points="476.1,506.1 484.5,492.3 484.5,506.1 476.1,506.1 				"/>
				<rect x="484.5" y="492.3" class="st4" width="1.9" height="14.8"/>
			</g>
			<g>
				<path class="st4" d="M903.5,726.4l8.4-13.8c0,0,1.8,4.6,4.1,9.4L903.5,726.4z"/>
				<path class="st4" d="M903.5,726.4c0,0,1.6,4,2,4.7l26.1-8.2l-6.8-14.5l-12.9,4.1L903.5,726.4z"/>
			</g>
			<g>
				<path class="st4" d="M1108.6,726.4l8.4-13.8c0,0,1.8,4.6,4.1,9.4L1108.6,726.4z"/>
				<path class="st4" d="M1108.6,726.4c0,0,1.6,4,2,4.7l26.1-8.2l-6.8-14.5l-12.9,4.1L1108.6,726.4z"/>
			</g>
			<g>
				<polygon class="st4" points="750.4,646.6 750.9,643.8 742.2,641.8 733,645.4 730.8,656.3 742,660.4 				"/>
				<path class="st4" d="M742,660.4l8.4-13.8l-3.3-1.1C747.1,645.4,743.1,652.1,742,660.4z"/>
			</g>
		</g>
		<g>
			<g>
				<path class="st4" d="M591.2,506.1c52.8,0,89.6,35.2,89.6,88.8c0,53.6-38,88.8-89.6,88.8h-62.3V786h-52.8V506.1H591.2z
					 M528.9,635.6H586c25.2,0,42-16,42-40.8c0-24.8-16.8-40.8-42-40.8h-57.1V635.6z"/>
				<path class="st4" d="M790.3,582.1c52,0,86,29.1,86,78.8V786h-48.7v-25.6h-4c-6.4,11.6-22,31.2-60.8,31.2
					c-40.8,0-71.1-21.2-71.1-58.8s31.2-54.8,72.8-61.2l62.3-9.6v-4.8c0-19.2-11.2-35.2-38.4-35.2s-41.6,16-46.4,38.4L693.6,644
					C707.2,611.2,738.4,582.1,790.3,582.1z M774.4,753.2c31.9,0,52.4-20.7,52.4-50.4v-5.2l-56.8,8.8c-18,2.8-28,10.8-28,23.5
					C742,742.8,752,753.2,774.4,753.2z"/>
				<path class="st4" d="M994.7,582.1c46.4,0,80.8,22.8,100,59.6l-44.8,18c-10.4-30.8-34.4-38.4-54.3-38.4c-20,0-32.4,6.8-32.4,19.6
					s10.4,18,31.9,22.4l20,4c40.8,8,77.2,20.4,77.2,61.2c0,40.8-36,63.2-84.7,63.2c-49.6,0-87.5-22.4-103.9-65.1l45.6-16
					c9.2,33.2,32.8,42,57.6,42s36.8-8.8,36.8-21.6s-11.2-16.8-34.4-21.6l-20-4c-41.6-8.4-74.8-25.2-74.8-62.7
					S948.3,582.1,994.7,582.1z"/>
				<path class="st4" d="M1199.8,582.1c46.4,0,80.8,22.8,100,59.6l-44.8,18c-10.4-30.8-34.4-38.4-54.3-38.4
					c-20,0-32.4,6.8-32.4,19.6s10.4,18,31.9,22.4l20,4c40.8,8,77.2,20.4,77.2,61.2c0,40.8-36,63.2-84.7,63.2
					c-49.6,0-87.5-22.4-103.9-65.1l45.6-16c9.2,33.2,32.8,42,57.6,42c24.8,0,36.8-8.8,36.8-21.6s-11.2-16.8-34.4-21.6l-20-4
					c-41.6-8.4-74.8-25.2-74.8-62.7S1153.5,582.1,1199.8,582.1z"/>
			</g>
			<g>
				<path class="st5" d="M599.6,492.3c52.8,0,89.6,35.2,89.6,88.8s-38,88.8-89.6,88.8h-62.3v102.4h-52.8V492.3H599.6z M537.3,621.8
					h57.1c25.2,0,42-16,42-40.8s-16.8-40.9-42-40.9h-57.1L537.3,621.8L537.3,621.8z"/>
				<path class="st5" d="M798.7,568.2c52,0,86,29.1,86,78.8v125.2H836v-25.6h-4c-6.4,11.6-22,31.2-60.8,31.2
					c-40.8,0-71.1-21.2-71.1-58.8s31.2-54.8,72.8-61.2l62.3-9.6v-4.8c0-19.2-11.2-35.2-38.4-35.2s-41.6,16-46.4,38.4L702,630.2
					C715.6,597.4,746.8,568.2,798.7,568.2z M782.8,739.4c31.9,0,52.4-20.7,52.4-50.4v-5.2l-56.8,8.8c-18,2.8-28,10.8-28,23.5
					C750.4,728.9,760.4,739.4,782.8,739.4z"/>
				<path class="st5" d="M1003.2,568.2c46.4,0,80.8,22.8,100,59.6l-44.8,18c-10.4-30.8-34.4-38.4-54.3-38.4
					c-20,0-32.4,6.8-32.4,19.6c0,12.8,10.4,18,31.9,22.4l20,4c40.8,8,77.2,20.4,77.2,61.2s-36,63.2-84.7,63.2
					c-49.6,0-87.5-22.4-103.9-65.1l45.6-16c9.2,33.2,32.8,42,57.6,42c24.8,0,36.8-8.8,36.8-21.6s-11.2-16.8-34.4-21.6l-20-4
					c-41.6-8.4-74.8-25.2-74.8-62.7C922.9,591.3,956.7,568.2,1003.2,568.2z"/>
				<path class="st5" d="M1208.3,568.2c46.4,0,80.8,22.8,100,59.6l-44.8,18c-10.4-30.8-34.4-38.4-54.3-38.4
					c-20,0-32.4,6.8-32.4,19.6c0,12.8,10.4,18,31.9,22.4l20,4c40.8,8,77.2,20.4,77.2,61.2s-36,63.2-84.7,63.2
					c-49.6,0-87.5-22.4-103.9-65.1l45.6-16c9.2,33.2,32.8,42,57.6,42s36.8-8.8,36.8-21.6s-11.2-16.8-34.4-21.6l-20-4
					c-41.6-8.4-74.8-25.2-74.8-62.7C1128,591.3,1161.9,568.2,1208.3,568.2z"/>
			</g>
		</g>
		<g>
			<path class="st6" d="M558.5,434.8c-7.1,0-12.2-5.7-12.2-12.4V290c0-6.8,5.2-12.4,12.2-12.4h82c1.1,0,2.1,0.4,2.7,1.1
				c0.7,0.9,1.1,1.9,1.1,2.9c0,2.1-1.9,3.8-3.8,3.8h-47.3c-2.3,0-4,0.7-5.5,2.3c-1.6,1.6-2.3,3.4-2.3,5.5v54.3
				c0,2.1,0.7,3.8,2.3,5.5c1.3,1.6,3.2,2.3,5.5,2.3h27.5c2.3,0.4,3.8,1.3,3.8,3.8c0,2.1-1.9,3.8-3.8,3.8h-27.5c-2.3,0-4,0.7-5.5,2.3
				c-1.6,1.6-2.3,3.4-2.3,5.5v48.4c0,2.1,0.7,3.8,2.3,5.5c1.3,1.6,3.2,2.3,5.5,2.3h47.3c2.1,0,3.8,1.9,3.8,3.8c0,2.3-1.6,4-3.8,4
				h-82V434.8z"/>
			<path class="st6" d="M771.2,430c0.2,0.2,0.2,0.9,0.2,2.1c-0.2,1.1-1.1,2.1-2.7,2.7c-2.5,0.2-3.4-0.2-3.8-1.1
				c-0.7-0.7-0.9-1.3-1.1-1.6c0-0.2-0.4-1.9-1.1-4.4c-0.9-2.5-1.9-5.5-2.7-8.6c-1.1-3.4-2.3-7.5-3.6-12c-0.7-2.5-2.1-4.4-4-5.9
				c-2.1-1.3-4.4-2.1-6.8-2.1h-31.5c-2.5,0-4.8,0.7-6.8,2.1c-2.1,1.6-3.4,3.4-4,5.9l-6.1,21c-1.3,3.8-4.6,6.3-8.6,6.3h-22.5
				c-2.9,0-5.5-1.1-7.1-3.6c-1.9-2.3-2.3-4.8-1.3-7.7l41.8-139.3c1.3-3.6,4.4-6.3,8.4-6.3h11.4c4.6,0,7.5,2.1,8.6,6.3L771.2,430z
				 M745.2,391.1c1.6,0,2.7-0.7,3.6-1.9c0.9-1.1,1.1-2.5,0.7-4l-15.7-52.5c-0.7-2.1-2.3-3.2-4.6-3.2c-2.1,0-3.6,1.1-4.4,3.2
				l-15.7,52.5c-0.4,1.6-0.2,2.9,0.7,4c0.9,1.1,2.1,1.9,3.6,1.9H745.2z"/>
			<path class="st6" d="M823.4,435.2c-13.9,0-25.9-5-35.7-14.7c-0.7-0.7-1.6-3.2-1.6-4.4c0-1.3,2.1-3.2,3.4-3.2
				c0.9,0,1.9,0.2,2.7,0.9c8.4,8.2,19.3,13.4,31.1,13.4c5.7,0,10-0.7,10-7.3v-70.8c0-3.8-1.6-5.9-5-6.3c-0.7-0.2-1.6-0.2-2.5-0.2
				h-2.5c-8.8,0-17.9-3.6-24.1-10.3c-6.6-6.1-10.3-15.2-10.3-24.1c0-19.3,15.5-34.3,34.3-34.3c9.1,0,17.9,3.4,24.1,10
				c0.9,0.9,1.9,2.5,1.9,3.8c-0.2,0.7-0.7,1.6-1.6,2.3c-0.7,0.7-1.3,0.9-2.5,0.9c-0.7,0-1.6-0.2-2.3-0.7c-5.9-5.9-12-8.4-19.5-8.4
				c-14.5,0-26.3,11.8-26.3,26.3c0,14.5,12,26.1,26.3,26.1c27.9,0,50.4,22.3,50.4,50.4C873.8,412.9,851.3,435.2,823.4,435.2z"/>
			<path class="st6" d="M968.8,363.2c-1.9,3.8-2.7,8-2.7,12.4v46.8c0,7.1-5.5,12.4-12.4,12.4h-14.5c-7.1,0-12.2-5.7-12.2-12.4v-46.8
				c0-4-0.9-8.4-2.9-12.8l-37.2-80c-0.2-0.7-0.4-1.3-0.4-2.1c0-0.7,0-1.3,0.2-2.1c0.2-0.4,0.7-0.9,1.3-1.3c0.9-0.4,1.6-0.7,2.3-0.7
				c1.6,0,3.6,1.3,4,2.9c0.2,0.2,0.9,1.9,2.3,4.8c4,9.5,8.6,19.1,13.2,28.6c2.9,6.1,5.7,12.4,8.6,18.9c7.1,15.2,14.7,32.3,23.6,51.1
				c0.9,1.9,2.3,2.7,4.4,2.7c2.3,0,3.6-0.9,4.4-2.7l47.7-103.4c0.2-0.2,0.4-0.9,1.1-1.6c0.4-0.7,1.3-1.1,2.5-1.1
				c2.3,0,3.8,1.1,4.4,3.6c0,0.7,0,1.3-0.2,2.1L968.8,363.2z"/>
		</g>
	</g>
	<g id="Layer_1">
		<g id="Fertiger_x5F_Schluessel_1_">
			<g id="Schuessel_x5F_ganz_1_">
				<g id="Grundlayout_1_">
					<g>
						<polygon class="st7" points="396.6,493.3 396.6,781 352.5,820.5 352.5,518.1 						"/>
						<polygon class="st4" points="308.7,493.3 308.7,781 352.5,820.5 352.5,518.1 						"/>
					</g>
					<g>
						<polygon class="st8" points="352.5,173.6 202.8,257.3 202.8,433.9 352.5,518.1 						"/>
						<polygon class="st8" points="352.5,173.6 502,257.3 502,433.9 352.5,518.1 						"/>
					</g>
					<g>
						<polygon class="st8" points="396.6,602.3 430.1,635.4 396.6,668.8 						"/>
						<polyline class="st8" points="396.6,725 396.6,658.5 430.1,691.5 						"/>
						<polyline class="st9" points="396.6,780.9 396.6,725 401.9,719.7 430.1,747.5 						"/>
					</g>
				</g>
				<g id="Verschoenerung_1_">
					<g id="SchluesselKopf_2_">
						<g>
							<polygon class="st10" points="352.5,209 202.8,257.3 352.5,173.6 							"/>
							<polygon class="st10" points="202.8,257.3 202.8,433.9 247.7,395.5 							"/>
							<polygon class="st11" points="247.7,395.5 202.8,257.3 293,306.7 							"/>
							<polygon class="st4" points="293,306.7 352.5,209 202.8,257.3 							"/>
							<polygon class="st4" points="247.7,395.5 352.5,518.1 202.8,433.9 							"/>
							<polygon class="st12" points="293,306.7 352.5,339 352.5,209 							"/>
							<polygon class="st13" points="247.7,395.5 352.4,424.1 352.5,518.1 							"/>
							<polygon class="st11" points="247.7,395.5 293,306.7 352.5,339 352.4,424.1 							"/>
						</g>
						<g>
							<polygon class="st11" points="352.5,209 502,257.3 352.5,173.6 							"/>
							<polygon class="st14" points="502,257.3 502,433.9 457.2,395.5 							"/>
							<polygon class="st5" points="457.2,395.5 502,257.3 411.8,306.7 							"/>
							<polygon class="st4" points="411.8,306.7 352.5,209 502,257.3 							"/>
							<polygon class="st9" points="457.2,395.5 352.5,518.1 502,433.9 							"/>
							<polygon class="st12" points="411.8,306.7 352.5,339 352.5,209 							"/>
							<polygon class="st5" points="457.2,395.5 352.5,424.1 352.5,518.1 							"/>
							<polygon class="st7" points="457.2,395.5 411.8,306.7 352.5,339 352.5,424.1 							"/>
						</g>
					</g>
					<g id="Unten_2_">
						<polyline class="st5" points="430.1,635.4 352.5,558.5 352.5,614.1 401.9,663.6 430.1,635.4 						"/>
						<polygon class="st15" points="401.9,663.6 352.5,712.8 352.4,614.1 						"/>
						<polyline class="st14" points="430.1,691.5 352.5,769.4 352.5,712.8 401.9,663.6 430.1,691.5 						"/>
						<polygon class="st16" points="352.5,518.1 309.1,561.3 309.1,493.3 						"/>
						<polygon class="st17" points="325.5,796.2 352.5,769.4 352.5,820.5 						"/>
						<polygon class="st14" points="396.6,602.3 396.6,658.5 401.9,663.6 430.1,635.4 						"/>
					</g>
				</g>
			</g>
			<g id="Schloss_1_">
				<path class="st18" d="M392,344.8V307c0-21.9-17.7-39.6-39.6-39.6s-39.6,17.7-39.6,39.6v37.8c-14.5,11.6-23.8,29.5-23.8,49.5
					c0,35.1,28.4,63.5,63.5,63.5s63.5-28.4,63.5-63.5C415.8,374.2,406.5,356.4,392,344.8z M328.6,307c0-13.1,10.7-23.8,23.8-23.8
					c13.1,0,23.8,10.7,23.8,23.8v28.4c-7.4-3-15.3-4.7-23.8-4.7c-8.4,0-16.5,1.7-23.8,4.7V307z M352.4,441.9
					c-26.2,0-47.6-21.4-47.6-47.6c0-26.2,21.4-47.6,47.6-47.6c26.2,0,47.6,21.4,47.6,47.6C400,420.5,378.6,441.9,352.4,441.9z
					 M368.2,394.2c0,8.7-7.2,15.9-15.9,15.9s-15.9-7.2-15.9-15.9s7.2-15.9,15.9-15.9C361.2,378.4,368.2,385.5,368.2,394.2z"/>
			</g>
		</g>
	</g>
	<g>
		<path class="st19" d="M480.8,841.9h9.6v-10.6h2.9v10.6h10.1v2.5h-10.1v20.9c0,1.1,0.6,1.7,1.6,1.7h6.9v2.5h-7.7
			c-2.3,0-3.7-1.4-3.7-3.8v-21.3h-9.6V841.9z"/>
		<path class="st19" d="M513.4,829.6v17h0.6c1.6-2.6,4.4-5.2,10.6-5.2c5.9,0,11.3,3.6,11.3,11.3v16.9h-2.9v-16.6
			c0-6.3-3.5-8.9-8.9-8.9c-6,0-10.6,3.9-10.6,11.7v13.8h-2.9v-39.9H513.4z"/>
		<path class="st19" d="M557.2,841.2c7.8,0,13.4,5,13.4,13.4v1.8h-24.5c0.4,7.1,4.9,11.3,11.4,11.3c5.5,0,8.2-2.8,9.8-6.4l2.8,1.1
			c-1.9,3.9-5.1,7.9-12.6,7.9c-8.8,0-14.5-6.4-14.5-14.8C543.1,847.4,549.1,841.2,557.2,841.2z M567.6,853.9
			c-0.2-6.6-4.4-10.1-10.4-10.1c-5.9,0-10.3,3.8-11,10.1H567.6z"/>
		<path class="st19" d="M606.9,841.2c6.7,0,11.6,3.2,13.2,8.7l-2.8,0.9c-1.7-5.2-5.6-7.1-10.5-7.1c-4.5,0-8,1.9-8,5.2
			c0,3.4,3.1,4.6,8.1,5.3l1.9,0.3c6.3,1,10.9,2.5,10.9,7.8c0,4.8-4.2,8.2-11.2,8.2c-7.2,0-12.3-3.3-14.1-9.2l2.8-0.8
			c1.3,5.1,6,7.5,11.2,7.5c5.3,0,8.3-2.5,8.3-5.5c0-3.4-3.3-4.4-8.6-5.2l-1.9-0.3c-6.2-1-10.4-3.1-10.4-7.8
			C596,844.4,600.3,841.2,606.9,841.2z"/>
		<path class="st19" d="M629,830.1c1.7,0,3,1.3,3,2.9c0,1.7-1.2,2.9-3,2.9s-3-1.3-3-2.9C626,831.3,627.3,830.1,629,830.1z
			 M630.5,869.5h-2.9v-27.6h2.9V869.5z"/>
		<path class="st19" d="M642.8,841.9v3.7h0.6c1.5-2.6,4.2-4.3,8.5-4.3c4.6,0,7.4,2.4,8.7,5.4h0.6c1.7-3.4,4.7-5.4,9.2-5.4
			c5.8,0,9.6,3.8,9.6,9.1v19h-2.9v-18.7c0-4-2.7-6.8-7.3-6.8c-4.6,0-8.2,3-8.2,8.7v16.8h-2.9v-18.7c0-4-2.7-6.8-7.3-6.8
			c-4.6,0-8.2,3-8.2,8.7v16.8H640v-27.6H642.8z"/>
		<path class="st19" d="M689,841.9h2.8v5.4h0.6c1.7-3.1,5-6.2,11.4-6.2c7.7,0,13.6,5.8,13.6,14.6s-5.9,14.6-13.6,14.6
			c-6.4,0-9.6-3-11.3-6h-0.6v16.6H689V841.9z M714.3,855.7c0-7.4-4.5-12-11.1-12c-6.6,0-11.3,4.7-11.3,12s4.7,12,11.3,12
			C709.9,867.7,714.3,863.1,714.3,855.7z"/>
		<path class="st19" d="M727.9,869.5H725v-39.9h2.9V869.5z"/>
		<path class="st19" d="M749.7,841.2c7.8,0,13.4,5,13.4,13.4v1.8h-24.5c0.4,7.1,4.9,11.3,11.4,11.3c5.5,0,8.2-2.8,9.8-6.4l2.8,1.1
			c-1.9,3.9-5.1,7.9-12.6,7.9c-8.8,0-14.5-6.4-14.5-14.8C735.6,847.4,741.6,841.2,749.7,841.2z M760.1,853.9
			c-0.2-6.6-4.4-10.1-10.4-10.1c-5.9,0-10.3,3.8-11,10.1H760.1z"/>
		<path class="st19" d="M789.7,841.9h2.8v5.4h0.6c1.7-3.1,5-6.2,11.4-6.2c7.7,0,13.6,5.8,13.6,14.6s-5.9,14.6-13.6,14.6
			c-6.4,0-9.6-3-11.3-6h-0.6v16.6h-2.9V841.9z M815,855.7c0-7.4-4.5-12-11.1-12c-6.6,0-11.3,4.7-11.3,12s4.7,12,11.3,12
			C810.5,867.7,815,863.1,815,855.7z"/>
		<path class="st19" d="M836.2,841.2c7.4,0,11.6,4.3,11.6,10.8v17.6h-2.8v-4.6h-0.5c-1.8,2.8-5.2,5.4-11.1,5.4
			c-5.9,0-10.3-2.7-10.3-8c0-5.2,4.7-7.4,10.2-8.1l11.6-1.4v-1c0-5-3.3-8.1-8.8-8.1c-5.5,0-8.4,3.1-9.8,7.2l-2.7-0.9
			C825.1,845.4,828.9,841.2,836.2,841.2z M833.4,867.8c6.4,0,11.5-3.5,11.5-10.7v-1.8l-11.3,1.4c-4.3,0.6-7.7,2.1-7.7,5.6
			C826,865.9,829,867.8,833.4,867.8z"/>
		<path class="st19" d="M866.7,841.2c6.7,0,11.6,3.2,13.2,8.7l-2.8,0.9c-1.7-5.2-5.6-7.1-10.5-7.1c-4.5,0-8,1.9-8,5.2
			c0,3.4,3.1,4.6,8.1,5.3l1.9,0.3c6.3,1,10.9,2.5,10.9,7.8c0,4.8-4.2,8.2-11.2,8.2c-7.2,0-12.3-3.3-14.1-9.2l2.8-0.8
			c1.3,5.1,6,7.5,11.2,7.5c5.3,0,8.3-2.5,8.3-5.5c0-3.4-3.3-4.4-8.6-5.2l-1.9-0.3c-6.2-1-10.4-3.1-10.4-7.8
			C855.8,844.4,860.1,841.2,866.7,841.2z"/>
		<path class="st19" d="M896.1,841.2c6.7,0,11.6,3.2,13.2,8.7l-2.8,0.9c-1.7-5.2-5.6-7.1-10.5-7.1c-4.5,0-8,1.9-8,5.2
			c0,3.4,3.1,4.6,8.1,5.3l1.9,0.3c6.3,1,10.9,2.5,10.9,7.8c0,4.8-4.2,8.2-11.2,8.2c-7.2,0-12.3-3.3-14.1-9.2l2.8-0.8
			c1.3,5.1,6,7.5,11.2,7.5c5.3,0,8.3-2.5,8.3-5.5c0-3.4-3.3-4.4-8.6-5.2l-1.9-0.3c-6.2-1-10.4-3.1-10.4-7.8
			C885.3,844.4,889.6,841.2,896.1,841.2z"/>
		<path class="st19" d="M918.2,841.9l6.3,24.5h0.6l8-24.5h4.2l8,24.5h0.6l6.3-24.5h3.1l-7.6,27.6h-4.3l-8-24.5h-0.6l-8,24.5h-4.3
			l-7.6-27.6H918.2z"/>
		<path class="st19" d="M975.1,841.2c8.6,0,14.2,6.1,14.2,14.6s-5.6,14.6-14.2,14.6s-14.2-6.1-14.2-14.6S966.5,841.2,975.1,841.2z
			 M975.1,867.7c6.9,0,11.3-5,11.3-12c0-7.1-4.4-12-11.3-12c-6.9,0-11.3,5.2-11.3,12C963.8,863,968.2,867.7,975.1,867.7z"/>
		<path class="st19" d="M999.7,845.4h0.6c1.2-2.5,3.2-3.6,7.1-3.6h4.3v2.6h-4.7c-4.4,0-7.1,2.4-7.1,7.6v17.5h-2.9v-27.6h2.8V845.4z"
			/>
		<path class="st19" d="M1042.6,869.5h-2.8v-5.4h-0.6c-1.7,3.1-5,6.2-11.4,6.2c-7.7,0-13.6-5.8-13.6-14.6s5.9-14.6,13.6-14.6
			c6.4,0,9.6,3,11.3,6h0.6v-17.5h2.9V869.5z M1017.2,855.7c0,7.4,4.5,12,11.1,12s11.3-4.7,11.3-12s-4.7-12-11.3-12
			S1017.2,848.4,1017.2,855.7z"/>
		<path class="st19" d="M1054.9,841.9v3.7h0.6c1.5-2.6,4.2-4.3,8.5-4.3c4.6,0,7.4,2.4,8.7,5.4h0.6c1.7-3.4,4.7-5.4,9.2-5.4
			c5.8,0,9.6,3.8,9.6,9.1v19h-2.9v-18.7c0-4-2.7-6.8-7.3-6.8c-4.6,0-8.2,3-8.2,8.7v16.8h-2.9v-18.7c0-4-2.7-6.8-7.3-6.8
			c-4.6,0-8.2,3-8.2,8.7v16.8h-2.9v-27.6H1054.9z"/>
		<path class="st19" d="M1111.9,841.2c7.4,0,11.6,4.3,11.6,10.8v17.6h-2.8v-4.6h-0.5c-1.8,2.8-5.2,5.4-11.1,5.4
			c-5.9,0-10.3-2.7-10.3-8c0-5.2,4.7-7.4,10.2-8.1l11.6-1.4v-1c0-5-3.3-8.1-8.8-8.1c-5.5,0-8.4,3.1-9.8,7.2l-2.7-0.9
			C1100.8,845.4,1104.6,841.2,1111.9,841.2z M1109.1,867.8c6.4,0,11.5-3.5,11.5-10.7v-1.8l-11.3,1.4c-4.3,0.6-7.7,2.1-7.7,5.6
			C1101.7,865.9,1104.7,867.8,1109.1,867.8z"/>
		<path class="st19" d="M1135.5,841.9v4.9h0.6c1.5-2.7,4.5-5.5,10.7-5.5c5.9,0,11.3,3.6,11.3,11.3v16.9h-2.9v-16.6
			c0-6.3-3.5-8.9-8.9-8.9c-6,0-10.6,3.9-10.6,11.7v13.8h-2.9v-27.6H1135.5z"/>
		<path class="st19" d="M1178,841.2c7.4,0,11.6,4.3,11.6,10.8v17.6h-2.8v-4.6h-0.5c-1.8,2.8-5.2,5.4-11.1,5.4
			c-5.9,0-10.3-2.7-10.3-8c0-5.2,4.7-7.4,10.2-8.1l11.6-1.4v-1c0-5-3.3-8.1-8.8-8.1c-5.5,0-8.4,3.1-9.8,7.2l-2.7-0.9
			C1166.9,845.4,1170.7,841.2,1178,841.2z M1175.3,867.8c6.4,0,11.5-3.5,11.5-10.7v-1.8l-11.3,1.4c-4.3,0.6-7.7,2.1-7.7,5.6
			C1167.8,865.9,1170.8,867.8,1175.3,867.8z"/>
		<path class="st19" d="M1225.3,841.9v26.3c0,7.7-5.1,13.5-13.5,13.5c-7.3,0-11.4-3.4-14.1-7.7l2.7-1.4c1.8,3.5,5.5,6.5,11.3,6.5
			c6.3,0,10.7-3.8,10.7-11.2v-4h-0.6c-1.6,2.8-4.9,5.9-11.3,5.9c-7.7,0-13.6-5.6-13.6-14.4c0-8.7,5.9-14.4,13.6-14.4
			c6.3,0,9.6,3,11.4,6.2h0.6v-5.4H1225.3z M1222.4,855.5c0-7.1-4.7-11.7-11.3-11.7s-11.1,4.5-11.1,11.7s4.5,11.7,11.1,11.7
			S1222.4,862.6,1222.4,855.5z"/>
		<path class="st19" d="M1247.1,841.2c7.8,0,13.4,5,13.4,13.4v1.8H1236c0.4,7.1,4.9,11.3,11.4,11.3c5.5,0,8.2-2.8,9.8-6.4l2.8,1.1
			c-1.9,3.9-5.1,7.9-12.6,7.9c-8.8,0-14.5-6.4-14.5-14.8C1233,847.4,1239,841.2,1247.1,841.2z M1257.5,853.9
			c-0.2-6.6-4.4-10.1-10.4-10.1c-5.9,0-10.3,3.8-11,10.1H1257.5z"/>
		<path class="st19" d="M1270.7,845.4h0.6c1.2-2.5,3.2-3.6,7.1-3.6h4.3v2.6h-4.7c-4.4,0-7.1,2.4-7.1,7.6v17.5h-2.9v-27.6h2.8V845.4z
			"/>
	</g>
</g>
</svg>
