<?xml version="1.0" encoding="utf-8"?>
<!-- Generator: Adobe Illustrator 23.0.6, SVG Export Plug-In . SVG Version: 6.00 Build 0)  -->
<svg version="1.1" xmlns="http://www.w3.org/2000/svg" xmlns:xlink="http://www.w3.org/1999/xlink" x="0px" y="0px"
	 viewBox="0 0 1500 1000" style="enable-background:new 0 0 1500 1000;" xml:space="preserve">
<style type="text/css">
	.st0{display:none;}
	.st1{display:inline;fill:#FFFFFF;stroke:#000000;stroke-miterlimit:10;}
	.st2{display:inline;fill:#7CD438;}
	.st3{display:inline;fill:#E33D54;}
	.st4{fill:#9DD4F1;}
	.st5{fill:#B7E1F7;}
	.st6{fill:#A60D05;}
	.st7{fill:#D31E14;}
	.st8{fill:#10A422;}
	.st9{fill:#C9132C;}
	.st10{fill:#C1272D;}
	.st11{fill:#EF4840;}
	.st12{fill:#95052E;}
	.st13{fill:#9E051A;}
	.st14{fill:#B10D24;}
	.st15{fill:#A62905;}
	.st16{fill:#E73128;}
	.st17{fill:#BA160E;}
	.st18{fill:#96052C;}
	.st19{fill:#BF1241;}
	.st20{fill:#FFFFFF;}
	.st21{fill:#D2EDFC;}
</style>
<g id="Background" class="st0">
	<rect x="-0.655" y="1.041" class="st1" width="1500" height="1000"/>
</g>
<g id="BackgroundCloud" class="st0">
	<polygon class="st2" points="276.921,719.728 334.201,777.009 331.118,676.42 	"/>
	<polygon class="st3" points="267.264,652.782 327.688,740.679 394.973,667.176 	"/>
	<polygon class="st2" points="318.025,571.525 256.332,626.342 228.667,581.681 	"/>
	<polygon class="st2" points="222.852,379.434 175.119,453.38 259.719,445.159 259.29,391.613 	"/>
	<polygon class="st3" points="244.275,554.556 296.36,633.495 338.232,576.698 291.253,497.406 	"/>
	<polygon class="st2" points="224.113,479.779 239.562,545.085 333.699,494.954 	"/>
	<polygon class="st3" points="250.578,523.342 300.41,462.074 215.599,390.84 	"/>
	<polygon class="st2" points="302.683,592.364 273.346,633.495 291.253,676.42 373.054,646.224 	"/>
	<polygon class="st2" points="244.275,384.021 169.553,358.447 191,342.605 236.191,317.416 	"/>
	<polygon class="st3" points="194.83,287.979 202.489,350.719 246.246,337 259.719,283.357 246.246,267.788 	"/>
	<polygon class="st2" points="225.998,204.9 208.474,261.999 232.101,293.032 255.883,238.31 248.266,189.002 	"/>
	<polygon class="st3" points="309.229,258.789 210.208,199.765 259.719,181.381 	"/>
	<polygon class="st2" points="278.759,171.895 277.213,221.048 337.72,256.296 331.274,222.471 	"/>
	<polygon class="st3" points="361.401,138.187 296.746,157.766 352.454,237.761 372.451,192.57 	"/>
	<polygon class="st2" points="414.736,126.545 364.267,173.268 388.064,220.085 430.72,185.98 	"/>
	<polygon class="st3" points="490.676,178.677 451.752,249.911 419.181,222.55 419.181,188.634 417.331,173.315 	"/>
	<polygon class="st3" points="469.856,267.788 459.596,200.915 505.553,203.468 513.076,237.761 	"/>
	<polygon class="st3" points="492.119,237.761 564.277,258.789 496.186,331.638 508.901,280.142 	"/>
	<polygon class="st3" points="492.119,314.908 522.404,364.319 552.532,342.605 542.394,312.745 	"/>
</g>
<g id="Wolken1">
	<g>
		<path id="MobileMe" class="st4" d="M820.315,281.359c0,46.983-37.812,85.071-84.437,85.071H474.62
			c-46.624,0-84.422-38.088-84.422-85.071c0-42.433,30.826-77.585,71.156-84.017c-0.511-2.978-0.793-6.042-0.793-9.196
			c0-29.769,23.952-53.898,53.506-53.898c13.18,0,25.258,4.802,34.576,12.792c16.612-37.715,37.908-72.134,97.652-72.134
			c72.456,0,106.797,56.303,106.797,115.715c0,2.485-0.104,4.947-0.271,7.383C791.333,205.911,820.315,240.223,820.315,281.359z"/>
	</g>
	<g>
		<path id="MobileMe_2_" class="st5" d="M458.16,245.225c0,34.256-27.569,62.026-61.564,62.026H206.11
			c-33.994,0-61.553-27.77-61.553-62.026c0-30.938,22.476-56.568,51.881-61.258c-0.373-2.171-0.578-4.405-0.578-6.705
			c0-21.705,17.464-39.298,39.012-39.298c9.61,0,18.416,3.501,25.21,9.327c12.112-27.498,27.639-52.594,71.199-52.594
			c52.828,0,77.867,41.051,77.867,84.369c0,1.812-0.076,3.607-0.198,5.383C437.029,190.215,458.16,215.232,458.16,245.225z"/>
	</g>
</g>
<g id="Fonts">
	<g id="Shatten">
		<polygon class="st6" points="874.001,777.008 882.132,763.663 874.001,763.663 		"/>
		<path class="st6" d="M900.206,719.556l8.139-13.344c0,0,1.664,4.378,3.981,9.09L900.206,719.556z"/>
		<polygon class="st6" points="1084.518,637.815 1092.642,624.475 1079.827,629.611 		"/>
		<path class="st6" d="M1098.01,719.554l8.133-13.338c0,0,2.634,6.531,3.98,9.084L1098.01,719.554z"/>
		<polyline class="st6" points="538.946,776.999 547.08,763.662 538.946,763.662 538.946,776.999 		"/>
		<polyline class="st6" points="488.052,507.103 496.186,493.769 496.186,507.103 488.052,507.103 		"/>
		<path class="st6" d="M744.476,655.922l8.104-13.33l-3.155-1.064C749.425,641.528,745.478,647.898,744.476,655.922z"/>
		<polygon class="st6" points="1282.318,637.816 1290.451,624.475 1277.618,629.621 		"/>
	</g>
	<g>
		<g>
			<path class="st6" d="M599.103,507.106c50.896,0,86.369,33.931,86.369,85.598s-36.629,85.598-86.369,85.598h-60.149v98.707
				h-50.896V507.106H599.103z M538.954,632.033h55.137c24.291,0,40.485-15.424,40.485-39.329s-16.194-39.328-40.485-39.328h-55.137
				V632.033z"/>
			<path class="st6" d="M791.109,580.366c50.125,0,82.898,28.146,82.898,75.958v120.685h-47.04v-24.677h-3.855
				c-6.169,11.182-21.206,30.075-58.607,30.075c-39.329,0-68.632-20.436-68.632-56.68s30.075-52.824,70.175-58.993l60.149-9.254
				v-4.627c0-18.507-10.796-33.931-37.016-33.931c-26.219,0-40.1,15.424-44.727,37.016L697.8,640.13
				C710.91,608.513,740.984,580.366,791.109,580.366z M775.687,745.392c30.847,0,50.511-20.05,50.511-48.582v-5.013l-54.752,8.482
				c-17.351,2.699-26.991,10.411-26.991,22.749C744.455,735.367,754.095,745.392,775.687,745.392z"/>
			<path class="st6" d="M988.132,580.366c44.727,0,77.886,21.978,96.394,57.45l-43.185,17.351
				c-10.025-29.688-33.159-37.015-52.438-37.015c-19.278,0-31.231,6.555-31.231,18.893c0,12.339,10.025,17.352,30.847,21.593
				l19.278,3.855c39.328,7.712,74.416,19.664,74.416,58.993c0,39.328-34.702,60.921-81.742,60.921
				c-47.811,0-84.44-21.593-100.249-62.849l43.955-15.424c8.868,32.003,31.617,40.485,55.523,40.485
				c23.905,0,35.473-8.482,35.473-20.82c0-12.339-10.796-16.194-33.159-20.821l-19.279-3.855
				c-40.1-8.098-72.103-24.291-72.103-60.535S943.405,580.366,988.132,580.366z"/>
			<path class="st6" d="M1185.928,580.366c44.727,0,77.886,21.978,96.394,57.45l-43.185,17.351
				c-10.025-29.688-33.159-37.015-52.438-37.015c-19.278,0-31.231,6.555-31.231,18.893c0,12.339,10.025,17.352,30.847,21.593
				l19.278,3.855c39.328,7.712,74.416,19.664,74.416,58.993c0,39.328-34.702,60.921-81.742,60.921
				c-47.811,0-84.44-21.593-100.249-62.849l43.955-15.424c8.868,32.003,31.617,40.485,55.523,40.485
				c23.905,0,35.473-8.482,35.473-20.82c0-12.339-10.796-16.194-33.159-20.821l-19.279-3.855
				c-40.1-8.098-72.103-24.291-72.103-60.535S1141.201,580.366,1185.928,580.366z"/>
		</g>
		<g>
			<path class="st7" d="M607.234,493.769c50.896,0,86.369,33.93,86.369,85.597s-36.629,85.598-86.369,85.598h-60.149v98.707h-50.896
				V493.769H607.234z M547.084,618.695h55.137c24.291,0,40.485-15.424,40.485-39.329s-16.194-39.328-40.485-39.328h-55.137V618.695z
				"/>
			<path class="st7" d="M799.24,567.028c50.125,0,82.898,28.146,82.898,75.958v120.685h-47.04v-24.677h-3.855
				c-6.169,11.182-21.206,30.075-58.607,30.075c-39.329,0-68.632-20.436-68.632-56.68s30.075-52.824,70.175-58.993l60.149-9.254
				v-4.627c0-18.507-10.796-33.931-37.016-33.931c-26.219,0-40.1,15.424-44.727,37.016l-46.655-15.809
				C719.041,595.175,749.116,567.028,799.24,567.028z M783.817,732.054c30.847,0,50.511-20.05,50.511-48.582v-5.013l-54.752,8.482
				c-17.351,2.699-26.99,10.411-26.99,22.749C752.586,722.029,762.226,732.054,783.817,732.054z"/>
			<path class="st7" d="M996.263,567.028c44.727,0,77.886,21.978,96.394,57.45l-43.185,17.351
				c-10.025-29.688-33.159-37.015-52.438-37.015c-19.278,0-31.231,6.555-31.231,18.893c0,12.339,10.025,17.352,30.847,21.593
				l19.278,3.855c39.328,7.712,74.416,19.664,74.416,58.993c0,39.328-34.702,60.921-81.742,60.921
				c-47.811,0-84.44-21.593-100.249-62.849l43.955-15.424c8.868,32.003,31.617,40.485,55.523,40.485
				c23.905,0,35.473-8.482,35.473-20.82c0-12.339-10.796-16.194-33.159-20.821l-19.279-3.855
				c-40.1-8.098-72.103-24.291-72.103-60.535S951.536,567.028,996.263,567.028z"/>
			<path class="st7" d="M1194.059,567.028c44.727,0,77.886,21.978,96.394,57.45l-43.185,17.351
				c-10.025-29.688-33.159-37.015-52.438-37.015c-19.278,0-31.231,6.555-31.231,18.893c0,12.339,10.025,17.352,30.847,21.593
				l19.278,3.855c39.328,7.712,74.416,19.664,74.416,58.993c0,39.328-34.702,60.921-81.742,60.921
				c-47.811,0-84.44-21.593-100.249-62.849l43.955-15.424c8.868,32.003,31.617,40.485,55.523,40.485
				c23.905,0,35.473-8.482,35.473-20.82c0-12.339-10.796-16.194-33.159-20.821l-19.279-3.855
				c-40.1-8.098-72.103-24.291-72.103-60.535S1149.332,567.028,1194.059,567.028z"/>
		</g>
	</g>
	<g>
		<path class="st8" d="M567.583,438.368c-6.79,0-11.828-5.476-11.828-12.047V298.839c0-6.571,5.038-12.047,11.828-12.047h79.074
			c1.095,0,1.971,0.438,2.628,1.095c0.657,0.876,1.095,1.752,1.095,2.848c0,1.971-1.752,3.724-3.724,3.724h-45.561
			c-2.19,0-3.943,0.657-5.257,2.19c-1.533,1.533-2.19,3.286-2.19,5.257v52.351c0,1.971,0.657,3.724,2.19,5.257
			c1.314,1.533,3.066,2.19,5.257,2.19H627.6c2.19,0.438,3.724,1.314,3.724,3.724c0,1.972-1.752,3.724-3.724,3.724h-26.504
			c-2.19,0-3.943,0.657-5.257,2.19c-1.533,1.533-2.19,3.286-2.19,5.257v46.655c0,1.971,0.657,3.724,2.19,5.257
			c1.314,1.533,3.066,2.19,5.257,2.19h45.561c1.971,0,3.724,1.752,3.724,3.724c0,2.19-1.533,3.943-3.724,3.943H567.583z"/>
		<path class="st8" d="M772.604,433.768c0.219,0.219,0.219,0.876,0.219,1.971c-0.219,1.095-1.095,1.971-2.628,2.628
			c-2.409,0.219-3.286-0.219-3.724-1.095c-0.657-0.657-0.876-1.314-1.096-1.533c0-0.219-0.438-1.752-1.095-4.162
			c-0.876-2.41-1.753-5.257-2.629-8.324c-1.095-3.286-2.19-7.229-3.505-11.609c-0.656-2.41-1.971-4.162-3.942-5.695
			c-1.972-1.314-4.163-1.971-6.572-1.971h-30.446c-2.41,0-4.6,0.657-6.571,1.971c-1.971,1.533-3.286,3.286-3.943,5.695
			l-5.914,20.151c-1.314,3.724-4.381,6.133-8.323,6.133H670.75c-2.848,0-5.257-1.095-6.79-3.505c-1.752-2.19-2.19-4.6-1.314-7.447
			l40.303-134.271c1.314-3.504,4.162-6.133,8.104-6.133h10.952c4.381,0,7.229,1.971,8.324,6.133L772.604,433.768z M747.633,396.312
			c1.533,0,2.629-0.657,3.505-1.752c0.876-1.095,1.095-2.409,0.657-3.942l-15.114-50.599c-0.657-1.971-2.19-3.066-4.381-3.066
			c-1.971,0-3.505,1.095-4.162,3.066l-15.114,50.599c-0.438,1.533-0.219,2.847,0.657,3.942c0.876,1.095,1.972,1.752,3.505,1.752
			H747.633z"/>
		<path class="st8" d="M822.985,438.806c-13.362,0-24.971-4.819-34.39-14.237c-0.657-0.657-1.533-3.067-1.533-4.162
			c0-1.314,1.972-3.066,3.285-3.066c0.877,0,1.753,0.219,2.629,0.876c8.104,7.886,18.618,12.923,30.009,12.923
			c5.476,0,9.638-0.657,9.638-7.009v-68.34c0-3.724-1.533-5.695-4.819-6.133c-0.657-0.219-1.533-0.219-2.409-0.219h-2.409
			c-8.543,0-17.305-3.505-23.219-9.857c-6.353-5.914-9.856-14.676-9.856-23.218c0-18.618,14.895-33.075,33.075-33.075
			c8.761,0,17.304,3.286,23.218,9.638c0.876,0.876,1.752,2.409,1.752,3.724c-0.219,0.657-0.656,1.533-1.533,2.19
			c-0.657,0.657-1.313,0.876-2.409,0.876c-0.657,0-1.533-0.219-2.19-0.657c-5.695-5.695-11.609-8.104-18.837-8.104
			c-14.019,0-25.409,11.39-25.409,25.409s11.609,25.19,25.409,25.19c26.941,0,48.626,21.466,48.626,48.626
			C871.611,417.34,849.927,438.806,822.985,438.806z"/>
		<path class="st8" d="M963.173,369.37c-1.752,3.724-2.628,7.667-2.628,12.047v45.122c0,6.79-5.257,12.047-12.048,12.047h-14.019
			c-6.79,0-11.828-5.476-11.828-12.047v-45.122c0-3.943-0.876-8.104-2.848-12.267L884.1,292.049
			c-0.219-0.657-0.438-1.314-0.438-1.971s0-1.314,0.219-1.971c0.219-0.438,0.657-0.876,1.314-1.314
			c0.876-0.438,1.533-0.657,2.19-0.657c1.533,0,3.504,1.314,3.942,2.848c0.219,0.219,0.876,1.752,2.19,4.6
			c3.942,9.199,8.323,18.399,12.704,27.599c2.848,5.914,5.477,12.047,8.323,18.181c6.791,14.675,14.238,31.104,22.78,49.284
			c0.876,1.752,2.19,2.628,4.162,2.628c2.19,0,3.505-0.876,4.162-2.628l45.998-99.663c0.219-0.219,0.438-0.876,1.095-1.533
			c0.438-0.657,1.314-1.095,2.41-1.095c2.19,0,3.724,1.095,4.161,3.504c0,0.657,0,1.314-0.219,1.972L963.173,369.37z"/>
	</g>
</g>
<g id="Layer_1">
	<g id="Fertiger_x5F_Schluessel_1_">
		<g id="Schuessel_x5F_ganz_1_">
			<g id="Grundlayout_1_">
				<g>
					<polygon class="st9" points="411.541,494.778 411.541,772.222 368.887,810.258 368.856,518.728 					"/>
					<polygon class="st6" points="326.691,494.778 326.691,772.222 368.887,810.258 368.856,518.728 					"/>
				</g>
				<g>
					<polygon class="st10" points="368.856,186.563 224.636,267.268 224.636,437.549 368.856,518.728 					"/>
					<polygon class="st10" points="368.856,186.563 513.076,267.268 513.076,437.549 368.856,518.728 					"/>
				</g>
				<g>
					<polygon class="st10" points="411.541,599.923 443.765,631.81 411.541,664.019 					"/>
					<polyline class="st10" points="411.541,718.174 411.541,654.063 443.765,685.95 					"/>
					<polyline class="st11" points="411.541,772.115 411.541,718.174 416.649,713.066 443.765,739.906 					"/>
				</g>
			</g>
			<g id="Verschoenerung_1_">
				<g id="SchluesselKopf_2_">
					<g>
						<polygon class="st12" points="368.856,220.668 224.636,267.268 368.856,186.563 						"/>
						<polygon class="st12" points="224.636,267.268 224.636,437.549 267.856,400.538 						"/>
						<polygon class="st13" points="267.856,400.538 224.636,267.268 311.581,314.908 						"/>
						<polygon class="st6" points="311.581,314.908 368.856,220.668 224.636,267.268 						"/>
						<polygon class="st6" points="267.856,400.538 368.856,518.728 224.636,437.549 						"/>
						<polygon class="st14" points="311.581,314.908 368.856,346.046 368.856,220.668 						"/>
						<polygon class="st15" points="267.856,400.538 368.795,428.143 368.856,518.728 						"/>
						<polygon class="st13" points="267.856,400.538 311.581,314.908 368.856,346.046 368.795,428.143 						"/>
					</g>
					<g>
						<polygon class="st13" points="368.856,220.668 513.076,267.268 368.856,186.563 						"/>
						<polygon class="st16" points="513.076,267.268 513.076,437.549 469.856,400.538 						"/>
						<polygon class="st7" points="469.856,400.538 513.076,267.268 426.131,314.908 						"/>
						<polygon class="st6" points="426.131,314.908 368.856,220.668 513.076,267.268 						"/>
						<polygon class="st11" points="469.856,400.538 368.856,518.682 513.076,437.549 						"/>
						<polygon class="st14" points="426.131,314.908 368.856,346.046 368.856,220.668 						"/>
						<polygon class="st7" points="469.856,400.538 368.917,428.143 368.856,518.682 						"/>
						<polygon class="st9" points="469.856,400.538 426.131,314.908 368.856,346.046 368.917,428.143 						"/>
					</g>
				</g>
				<g id="Unten_2_">
					<polyline class="st7" points="443.765,631.81 368.856,557.651 368.856,611.316 416.557,659.018 443.765,631.81 					"/>
					<polygon class="st17" points="416.557,659.018 368.887,706.428 368.81,611.316 					"/>
					<polyline class="st16" points="443.78,685.935 368.887,760.996 368.887,706.428 416.572,659.018 443.78,685.935 					"/>
					<polygon class="st18" points="368.856,518.728 327.135,560.449 327.135,494.778 					"/>
					<polygon class="st19" points="342.933,786.858 368.887,760.996 368.887,810.258 					"/>
					<polygon class="st16" points="411.541,599.923 411.541,654.063 416.572,659.018 443.765,631.81 					"/>
				</g>
			</g>
		</g>
		<g id="Schloss_1_">
			<path class="st20" d="M407.044,351.598v-36.414c0-21.121-17.114-38.25-38.25-38.25c-21.136,0-38.25,17.129-38.25,38.25v36.414
				c-13.979,11.21-22.941,28.401-22.941,47.717c0,33.799,27.391,61.19,61.19,61.19s61.19-27.391,61.19-61.19
				C430,379.998,421.023,362.808,407.044,351.598z M345.854,315.168c0-12.648,10.293-22.941,22.941-22.941
				s22.941,10.293,22.941,22.941v27.437c-7.096-2.875-14.82-4.496-22.941-4.496c-8.121,0-15.86,1.621-22.941,4.496
				C345.854,342.605,345.854,315.168,345.854,315.168z M368.81,445.211c-25.311,0-45.897-20.585-45.897-45.897
				c0-25.311,20.585-45.897,45.897-45.897s45.897,20.585,45.897,45.897C414.707,424.626,394.121,445.211,368.81,445.211z
				 M384.104,399.314c0,8.442-6.852,15.294-15.294,15.294c-8.442,0-15.294-6.852-15.294-15.294s6.852-15.294,15.294-15.294
				C377.252,384.021,384.104,390.872,384.104,399.314z"/>
		</g>
	</g>
</g>
<g id="Wolken2">
	<g>
		<path id="MobileMe_1_" class="st21" d="M114.108,475.552c-0.11-1.608-0.179-3.234-0.179-4.874
			c0-39.224,15.894-67.631,55.225-71.002c39.3-3.369,68.787,17.33,79.754,42.23c6.152-5.275,20.598-7.955,28.689-5.655
			c18.769,5.334,28.319,16.63,29.464,32.794c0.147,2.077-0.186,4.105-0.524,6.071c26.626,4.246,46.978,27.454,46.978,55.469
			c0,31.019-24.955,56.165-55.736,56.165H125.294c-30.782,0-55.746-25.146-55.746-56.165
			C69.548,503.425,88.682,480.772,114.108,475.552z"/>
	</g>
	<g>
	</g>
	<g>
	</g>
	<g>
	</g>
	<g>
	</g>
</g>
</svg>
