<?xml version="1.0" encoding="utf-8"?>
<!-- Generator: Adobe Illustrator 23.1.0, SVG Export Plug-In . SVG Version: 6.00 Build 0)  -->
<svg version="1.1" id="Ebene_1" xmlns="http://www.w3.org/2000/svg" xmlns:xlink="http://www.w3.org/1999/xlink" x="0px" y="0px"
	 viewBox="0 0 419.5 297.6" style="enable-background:new 0 0 419.5 297.6;" xml:space="preserve">
<style type="text/css">
	.st0{display:none;}
	.st1{display:inline;fill:#9DD3F1;}
	.st2{display:inline;fill:#B7E1F7;}
	.st3{fill:#D3EDFC;}
</style>
<g class="st0">
	<path id="MobileMe" class="st1" d="M410.1,205.3c0,43.8-35.2,79.3-78.6,79.3H88.1c-43.4,0-78.6-35.5-78.6-79.3
		c0-39.5,28.7-72.3,66.3-78.2c-0.5-2.8-0.7-5.6-0.7-8.6c0-27.8,22.4-50.2,49.8-50.2c12.3,0,23.6,4.5,32.2,11.9
		c15.5-35.1,35.3-67.2,91-67.2c67.5,0,99.5,52.4,99.5,107.8c0,2.3-0.1,4.6-0.3,6.9C383.1,135,410.1,166.9,410.1,205.3z"/>
</g>
<g class="st0">
	<path id="MobileMe_2_" class="st2" d="M379.5,193.1c0,34.3-27.6,62-61.6,62H127.4c-34,0-61.6-27.8-61.6-62
		c0-30.9,22.5-56.6,51.9-61.3c-0.4-2.2-0.6-4.4-0.6-6.7c0-21.7,17.5-39.3,39-39.3c9.6,0,18.4,3.5,25.2,9.3
		c12.1-27.5,27.6-52.6,71.2-52.6c52.8,0,77.9,41.1,77.9,84.4c0,1.8-0.1,3.6-0.2,5.4C358.3,138.1,379.5,163.1,379.5,193.1z"/>
</g>
<g id="Wolken2">
	<g>
		<path id="MobileMe_1_" class="st3" d="M109.1,135.3c-0.1-1.6-0.2-3.2-0.2-4.9c0-39.2,15.9-67.6,55.2-71s68.8,17.3,79.8,42.2
			c6.2-5.3,20.6-8,28.7-5.7c18.8,5.3,28.3,16.6,29.5,32.8c0.1,2.1-0.2,4.1-0.5,6.1c26.6,4.2,47,27.5,47,55.5c0,31-25,56.2-55.7,56.2
			H120.3c-30.8,0-55.7-25.1-55.7-56.2C64.5,163.1,83.7,140.5,109.1,135.3z"/>
	</g>
</g>
</svg>
