<?xml version="1.0" encoding="utf-8"?>
<!-- Generator: Adobe Illustrator 23.1.0, SVG Export Plug-In . SVG Version: 6.00 Build 0)  -->
<svg version="1.1" xmlns="http://www.w3.org/2000/svg" xmlns:xlink="http://www.w3.org/1999/xlink" x="0px" y="0px"
	 viewBox="0 0 1500 1000" style="enable-background:new 0 0 1500 1000;" xml:space="preserve">
<style type="text/css">
	.st0{display:none;}
	.st1{display:inline;fill:#FFFFFF;stroke:#000000;stroke-miterlimit:10;}
	.st2{display:inline;fill:#7CD438;}
	.st3{display:inline;fill:#E33D54;}
	.st4{fill:#9DD4F1;}
	.st5{fill:#B7E1F7;}
	.st6{fill:#A60D05;}
	.st7{fill:#D31E14;}
	.st8{fill:#10A422;}
	.st9{fill:#C9132C;}
	.st10{fill:#C1272D;}
	.st11{fill:#EF4840;}
	.st12{fill:#95052E;}
	.st13{fill:#9E051A;}
	.st14{fill:#B10D24;}
	.st15{fill:#A62905;}
	.st16{fill:#E73128;}
	.st17{fill:#BA160E;}
	.st18{fill:#96052C;}
	.st19{fill:#BF1241;}
	.st20{fill:#FFFFFF;}
	.st21{fill:#D2EDFC;}
</style>
<g id="Background" class="st0">
	<rect x="-0.7" y="1" class="st1" width="1500" height="1000"/>
</g>
<g id="BackgroundCloud" class="st0">
	<polygon class="st2" points="276.9,719.7 334.2,777 331.1,676.4 	"/>
	<polygon class="st3" points="267.3,652.8 327.7,740.7 395,667.2 	"/>
	<polygon class="st2" points="318,571.5 256.3,626.3 228.7,581.7 	"/>
	<polygon class="st2" points="222.9,379.4 175.1,453.4 259.7,445.2 259.3,391.6 	"/>
	<polygon class="st3" points="244.3,554.6 296.4,633.5 338.2,576.7 291.3,497.4 	"/>
	<polygon class="st2" points="224.1,479.8 239.6,545.1 333.7,495 	"/>
	<polygon class="st3" points="250.6,523.3 300.4,462.1 215.6,390.8 	"/>
	<polygon class="st2" points="302.7,592.4 273.3,633.5 291.3,676.4 373.1,646.2 	"/>
	<polygon class="st2" points="244.3,384 169.6,358.4 191,342.6 236.2,317.4 	"/>
	<polygon class="st3" points="194.8,288 202.5,350.7 246.2,337 259.7,283.4 246.2,267.8 	"/>
	<polygon class="st2" points="226,204.9 208.5,262 232.1,293 255.9,238.3 248.3,189 	"/>
	<polygon class="st3" points="309.2,258.8 210.2,199.8 259.7,181.4 	"/>
	<polygon class="st2" points="278.8,171.9 277.2,221 337.7,256.3 331.3,222.5 	"/>
	<polygon class="st3" points="361.4,138.2 296.7,157.8 352.5,237.8 372.5,192.6 	"/>
	<polygon class="st2" points="414.7,126.5 364.3,173.3 388.1,220.1 430.7,186 	"/>
	<polygon class="st3" points="490.7,178.7 451.8,249.9 419.2,222.5 419.2,188.6 417.3,173.3 	"/>
	<polygon class="st3" points="469.9,267.8 459.6,200.9 505.6,203.5 513.1,237.8 	"/>
	<polygon class="st3" points="492.1,237.8 564.3,258.8 496.2,331.6 508.9,280.1 	"/>
	<polygon class="st3" points="492.1,314.9 522.4,364.3 552.5,342.6 542.4,312.7 	"/>
</g>
<g id="Wolken1">
	<g>
		<path id="MobileMe" class="st4" d="M820.3,281.4c0,47-37.8,85.1-84.4,85.1H474.6c-46.6,0-84.4-38.1-84.4-85.1
			c0-42.4,30.8-77.6,71.2-84c-0.5-3-0.8-6-0.8-9.2c0-29.8,24-53.9,53.5-53.9c13.2,0,25.3,4.8,34.6,12.8
			c16.6-37.7,37.9-72.1,97.7-72.1c72.5,0,106.8,56.3,106.8,115.7c0,2.5-0.1,4.9-0.3,7.4C791.3,205.9,820.3,240.2,820.3,281.4z"/>
	</g>
	<g>
		<path id="MobileMe_2_" class="st5" d="M458.2,245.2c0,34.3-27.6,62-61.6,62H206.1c-34,0-61.6-27.8-61.6-62
			c0-30.9,22.5-56.6,51.9-61.3c-0.4-2.2-0.6-4.4-0.6-6.7c0-21.7,17.5-39.3,39-39.3c9.6,0,18.4,3.5,25.2,9.3
			c12.1-27.5,27.6-52.6,71.2-52.6c52.8,0,77.9,41.1,77.9,84.4c0,1.8-0.1,3.6-0.2,5.4C437,190.2,458.2,215.2,458.2,245.2z"/>
	</g>
</g>
<g id="Fonts">
	<g id="Shatten">
		<g>
			<rect x="871.3" y="763.7" class="st6" width="2.7" height="13.3"/>
			<polygon class="st6" points="874,777 882.1,763.7 874,763.7 			"/>
			<rect x="871.3" y="762.3" class="st6" width="10.9" height="1.4"/>
		</g>
		<g>
			<polygon class="st6" points="1290.5,624.5 1288.8,621.7 1272.3,628 1276.5,639.5 1281.4,638.1 1282.3,637.8 			"/>
			<polygon class="st6" points="1282.3,637.8 1290.5,624.5 1277.6,629.6 			"/>
		</g>
		<g>
			<polygon class="st6" points="1092.7,624.5 1091,621.7 1074.5,628 1078.7,639.5 1083.6,638.1 1084.5,637.8 			"/>
			<polygon class="st6" points="1084.5,637.8 1092.7,624.5 1079.8,629.6 			"/>
		</g>
		<g>
			<polygon class="st6" points="538.9,777 537.4,777 537.4,763.7 542.1,763.7 			"/>
			<polyline class="st6" points="538.9,777 547.1,763.7 538.9,763.7 538.9,777 			"/>
			<polygon class="st6" points="537.4,763.7 537.4,761.4 547.1,761.4 547.1,763.7 			"/>
		</g>
		<g>
			<polygon class="st6" points="496.2,507.1 488.1,507.1 488.1,508.1 496.2,508 			"/>
			<polyline class="st6" points="488.1,507.1 496.2,493.8 496.2,507.1 488.1,507.1 			"/>
			<rect x="496.2" y="493.8" class="st6" width="1.8" height="14.3"/>
		</g>
		<g>
			<path class="st6" d="M900.2,719.6l8.1-13.3c0,0,1.7,4.4,4,9.1L900.2,719.6z"/>
			<path class="st6" d="M900.2,719.6c0,0,1.5,3.9,1.9,4.5c0,0,25.2-7.9,25.2-7.9l-6.6-14l-12.4,4L900.2,719.6z"/>
		</g>
		<g>
			<path class="st6" d="M1098,719.6l8.1-13.3c0,0,1.7,4.4,4,9.1L1098,719.6z"/>
			<path class="st6" d="M1098,719.6c0,0,1.5,3.9,1.9,4.5c0,0,25.2-7.9,25.2-7.9l-6.6-14l-12.4,4L1098,719.6z"/>
		</g>
		<g>
			<polygon class="st6" points="752.6,642.6 753.1,639.9 744.7,638 735.8,641.5 733.7,652 744.5,655.9 			"/>
			<path class="st6" d="M744.5,655.9l8.1-13.3l-3.2-1.1C749.4,641.5,745.5,647.9,744.5,655.9z"/>
		</g>
	</g>
	<g>
		<g>
			<path class="st6" d="M599.1,507.1c50.9,0,86.4,33.9,86.4,85.6s-36.6,85.6-86.4,85.6H539V777h-50.9V507.1H599.1z M539,632h55.1
				c24.3,0,40.5-15.4,40.5-39.3s-16.2-39.3-40.5-39.3H539V632z"/>
			<path class="st6" d="M791.1,580.4c50.1,0,82.9,28.1,82.9,76V777h-47v-24.7h-3.9c-6.2,11.2-21.2,30.1-58.6,30.1
				c-39.3,0-68.6-20.4-68.6-56.7s30.1-52.8,70.2-59l60.1-9.3v-4.6c0-18.5-10.8-33.9-37-33.9c-26.2,0-40.1,15.4-44.7,37l-46.7-15.8
				C710.9,608.5,741,580.4,791.1,580.4z M775.7,745.4c30.8,0,50.5-20,50.5-48.6v-5l-54.8,8.5c-17.4,2.7-27,10.4-27,22.7
				C744.5,735.4,754.1,745.4,775.7,745.4z"/>
			<path class="st6" d="M988.1,580.4c44.7,0,77.9,22,96.4,57.5l-43.2,17.4c-10-29.7-33.2-37-52.4-37c-19.3,0-31.2,6.6-31.2,18.9
				c0,12.3,10,17.4,30.8,21.6l19.3,3.9c39.3,7.7,74.4,19.7,74.4,59c0,39.3-34.7,60.9-81.7,60.9c-47.8,0-84.4-21.6-100.2-62.8
				l44-15.4c8.9,32,31.6,40.5,55.5,40.5c23.9,0,35.5-8.5,35.5-20.8c0-12.3-10.8-16.2-33.2-20.8l-19.3-3.9
				c-40.1-8.1-72.1-24.3-72.1-60.5S943.4,580.4,988.1,580.4z"/>
			<path class="st6" d="M1185.9,580.4c44.7,0,77.9,22,96.4,57.5l-43.2,17.4c-10-29.7-33.2-37-52.4-37c-19.3,0-31.2,6.6-31.2,18.9
				c0,12.3,10,17.4,30.8,21.6l19.3,3.9c39.3,7.7,74.4,19.7,74.4,59c0,39.3-34.7,60.9-81.7,60.9c-47.8,0-84.4-21.6-100.2-62.8
				l44-15.4c8.9,32,31.6,40.5,55.5,40.5c23.9,0,35.5-8.5,35.5-20.8c0-12.3-10.8-16.2-33.2-20.8l-19.3-3.9
				c-40.1-8.1-72.1-24.3-72.1-60.5S1141.2,580.4,1185.9,580.4z"/>
		</g>
		<g>
			<path class="st7" d="M607.2,493.8c50.9,0,86.4,33.9,86.4,85.6S657,665,607.2,665h-60.1v98.7h-50.9V493.8H607.2z M547.1,618.7
				h55.1c24.3,0,40.5-15.4,40.5-39.3S626.5,540,602.2,540h-55.1V618.7z"/>
			<path class="st7" d="M799.2,567c50.1,0,82.9,28.1,82.9,76v120.7h-47V739h-3.9c-6.2,11.2-21.2,30.1-58.6,30.1
				c-39.3,0-68.6-20.4-68.6-56.7s30.1-52.8,70.2-59l60.1-9.3v-4.6c0-18.5-10.8-33.9-37-33.9c-26.2,0-40.1,15.4-44.7,37l-46.7-15.8
				C719,595.2,749.1,567,799.2,567z M783.8,732.1c30.8,0,50.5-20,50.5-48.6v-5l-54.8,8.5c-17.4,2.7-27,10.4-27,22.7
				C752.6,722,762.2,732.1,783.8,732.1z"/>
			<path class="st7" d="M996.3,567c44.7,0,77.9,22,96.4,57.5l-43.2,17.4c-10-29.7-33.2-37-52.4-37c-19.3,0-31.2,6.6-31.2,18.9
				c0,12.3,10,17.4,30.8,21.6l19.3,3.9c39.3,7.7,74.4,19.7,74.4,59c0,39.3-34.7,60.9-81.7,60.9c-47.8,0-84.4-21.6-100.2-62.8
				l44-15.4c8.9,32,31.6,40.5,55.5,40.5c23.9,0,35.5-8.5,35.5-20.8c0-12.3-10.8-16.2-33.2-20.8l-19.3-3.9
				c-40.1-8.1-72.1-24.3-72.1-60.5S951.5,567,996.3,567z"/>
			<path class="st7" d="M1194.1,567c44.7,0,77.9,22,96.4,57.5l-43.2,17.4c-10-29.7-33.2-37-52.4-37c-19.3,0-31.2,6.6-31.2,18.9
				c0,12.3,10,17.4,30.8,21.6l19.3,3.9c39.3,7.7,74.4,19.7,74.4,59c0,39.3-34.7,60.9-81.7,60.9c-47.8,0-84.4-21.6-100.2-62.8
				l44-15.4c8.9,32,31.6,40.5,55.5,40.5c23.9,0,35.5-8.5,35.5-20.8c0-12.3-10.8-16.2-33.2-20.8l-19.3-3.9
				c-40.1-8.1-72.1-24.3-72.1-60.5S1149.3,567,1194.1,567z"/>
		</g>
	</g>
	<g>
		<path class="st8" d="M567.6,438.4c-6.8,0-11.8-5.5-11.8-12V298.8c0-6.6,5-12,11.8-12h79.1c1.1,0,2,0.4,2.6,1.1
			c0.7,0.9,1.1,1.8,1.1,2.8c0,2-1.8,3.7-3.7,3.7h-45.6c-2.2,0-3.9,0.7-5.3,2.2c-1.5,1.5-2.2,3.3-2.2,5.3v52.4c0,2,0.7,3.7,2.2,5.3
			c1.3,1.5,3.1,2.2,5.3,2.2h26.5c2.2,0.4,3.7,1.3,3.7,3.7c0,2-1.8,3.7-3.7,3.7h-26.5c-2.2,0-3.9,0.7-5.3,2.2
			c-1.5,1.5-2.2,3.3-2.2,5.3v46.7c0,2,0.7,3.7,2.2,5.3c1.3,1.5,3.1,2.2,5.3,2.2h45.6c2,0,3.7,1.8,3.7,3.7c0,2.2-1.5,3.9-3.7,3.9
			H567.6z"/>
		<path class="st8" d="M772.6,433.8c0.2,0.2,0.2,0.9,0.2,2c-0.2,1.1-1.1,2-2.6,2.6c-2.4,0.2-3.3-0.2-3.7-1.1
			c-0.7-0.7-0.9-1.3-1.1-1.5c0-0.2-0.4-1.8-1.1-4.2c-0.9-2.4-1.8-5.3-2.6-8.3c-1.1-3.3-2.2-7.2-3.5-11.6c-0.7-2.4-2-4.2-3.9-5.7
			c-2-1.3-4.2-2-6.6-2h-30.4c-2.4,0-4.6,0.7-6.6,2c-2,1.5-3.3,3.3-3.9,5.7l-5.9,20.2c-1.3,3.7-4.4,6.1-8.3,6.1h-21.7
			c-2.8,0-5.3-1.1-6.8-3.5c-1.8-2.2-2.2-4.6-1.3-7.4l40.3-134.3c1.3-3.5,4.2-6.1,8.1-6.1h11c4.4,0,7.2,2,8.3,6.1L772.6,433.8z
			 M747.6,396.3c1.5,0,2.6-0.7,3.5-1.8c0.9-1.1,1.1-2.4,0.7-3.9L736.7,340c-0.7-2-2.2-3.1-4.4-3.1c-2,0-3.5,1.1-4.2,3.1L713,390.6
			c-0.4,1.5-0.2,2.8,0.7,3.9c0.9,1.1,2,1.8,3.5,1.8H747.6z"/>
		<path class="st8" d="M823,438.8c-13.4,0-25-4.8-34.4-14.2c-0.7-0.7-1.5-3.1-1.5-4.2c0-1.3,2-3.1,3.3-3.1c0.9,0,1.8,0.2,2.6,0.9
			c8.1,7.9,18.6,12.9,30,12.9c5.5,0,9.6-0.7,9.6-7v-68.3c0-3.7-1.5-5.7-4.8-6.1c-0.7-0.2-1.5-0.2-2.4-0.2H823
			c-8.5,0-17.3-3.5-23.2-9.9c-6.4-5.9-9.9-14.7-9.9-23.2c0-18.6,14.9-33.1,33.1-33.1c8.8,0,17.3,3.3,23.2,9.6
			c0.9,0.9,1.8,2.4,1.8,3.7c-0.2,0.7-0.7,1.5-1.5,2.2c-0.7,0.7-1.3,0.9-2.4,0.9c-0.7,0-1.5-0.2-2.2-0.7c-5.7-5.7-11.6-8.1-18.8-8.1
			c-14,0-25.4,11.4-25.4,25.4s11.6,25.2,25.4,25.2c26.9,0,48.6,21.5,48.6,48.6C871.6,417.3,849.9,438.8,823,438.8z"/>
		<path class="st8" d="M963.2,369.4c-1.8,3.7-2.6,7.7-2.6,12v45.1c0,6.8-5.3,12-12,12h-14c-6.8,0-11.8-5.5-11.8-12v-45.1
			c0-3.9-0.9-8.1-2.8-12.3L884.1,292c-0.2-0.7-0.4-1.3-0.4-2s0-1.3,0.2-2c0.2-0.4,0.7-0.9,1.3-1.3c0.9-0.4,1.5-0.7,2.2-0.7
			c1.5,0,3.5,1.3,3.9,2.8c0.2,0.2,0.9,1.8,2.2,4.6c3.9,9.2,8.3,18.4,12.7,27.6c2.8,5.9,5.5,12,8.3,18.2
			c6.8,14.7,14.2,31.1,22.8,49.3c0.9,1.8,2.2,2.6,4.2,2.6c2.2,0,3.5-0.9,4.2-2.6l46-99.7c0.2-0.2,0.4-0.9,1.1-1.5
			c0.4-0.7,1.3-1.1,2.4-1.1c2.2,0,3.7,1.1,4.2,3.5c0,0.7,0,1.3-0.2,2L963.2,369.4z"/>
	</g>
</g>
<g id="Layer_1">
	<g id="Fertiger_x5F_Schluessel_1_">
		<g id="Schuessel_x5F_ganz_1_">
			<g id="Grundlayout_1_">
				<g>
					<polygon class="st9" points="411.5,494.8 411.5,772.2 368.9,810.3 368.9,518.7 					"/>
					<polygon class="st6" points="326.7,494.8 326.7,772.2 368.9,810.3 368.9,518.7 					"/>
				</g>
				<g>
					<polygon class="st10" points="368.9,186.6 224.6,267.3 224.6,437.5 368.9,518.7 					"/>
					<polygon class="st10" points="368.9,186.6 513.1,267.3 513.1,437.5 368.9,518.7 					"/>
				</g>
				<g>
					<polygon class="st10" points="411.5,599.9 443.8,631.8 411.5,664 					"/>
					<polyline class="st10" points="411.5,718.2 411.5,654.1 443.8,685.9 					"/>
					<polyline class="st11" points="411.5,772.1 411.5,718.2 416.6,713.1 443.8,739.9 					"/>
				</g>
			</g>
			<g id="Verschoenerung_1_">
				<g id="SchluesselKopf_2_">
					<g>
						<polygon class="st12" points="368.9,220.7 224.6,267.3 368.9,186.6 						"/>
						<polygon class="st12" points="224.6,267.3 224.6,437.5 267.9,400.5 						"/>
						<polygon class="st13" points="267.9,400.5 224.6,267.3 311.6,314.9 						"/>
						<polygon class="st6" points="311.6,314.9 368.9,220.7 224.6,267.3 						"/>
						<polygon class="st6" points="267.9,400.5 368.9,518.7 224.6,437.5 						"/>
						<polygon class="st14" points="311.6,314.9 368.9,346 368.9,220.7 						"/>
						<polygon class="st15" points="267.9,400.5 368.8,428.1 368.9,518.7 						"/>
						<polygon class="st13" points="267.9,400.5 311.6,314.9 368.9,346 368.8,428.1 						"/>
					</g>
					<g>
						<polygon class="st13" points="368.9,220.7 513.1,267.3 368.9,186.6 						"/>
						<polygon class="st16" points="513.1,267.3 513.1,437.5 469.9,400.5 						"/>
						<polygon class="st7" points="469.9,400.5 513.1,267.3 426.1,314.9 						"/>
						<polygon class="st6" points="426.1,314.9 368.9,220.7 513.1,267.3 						"/>
						<polygon class="st11" points="469.9,400.5 368.9,518.7 513.1,437.5 						"/>
						<polygon class="st14" points="426.1,314.9 368.9,346 368.9,220.7 						"/>
						<polygon class="st7" points="469.9,400.5 368.9,428.1 368.9,518.7 						"/>
						<polygon class="st9" points="469.9,400.5 426.1,314.9 368.9,346 368.9,428.1 						"/>
					</g>
				</g>
				<g id="Unten_2_">
					<polyline class="st7" points="443.8,631.8 368.9,557.7 368.9,611.3 416.6,659 443.8,631.8 					"/>
					<polygon class="st17" points="416.6,659 368.9,706.4 368.8,611.3 					"/>
					<polyline class="st16" points="443.8,685.9 368.9,761 368.9,706.4 416.6,659 443.8,685.9 					"/>
					<polygon class="st18" points="368.9,518.7 327.1,560.4 327.1,494.8 					"/>
					<polygon class="st19" points="342.9,786.9 368.9,761 368.9,810.3 					"/>
					<polygon class="st16" points="411.5,599.9 411.5,654.1 416.6,659 443.8,631.8 					"/>
				</g>
			</g>
		</g>
		<g id="Schloss_1_">
			<path class="st20" d="M407,351.6v-36.4c0-21.1-17.1-38.2-38.2-38.2c-21.1,0-38.2,17.1-38.2,38.2v36.4
				c-14,11.2-22.9,28.4-22.9,47.7c0,33.8,27.4,61.2,61.2,61.2s61.2-27.4,61.2-61.2C430,380,421,362.8,407,351.6z M345.9,315.2
				c0-12.6,10.3-22.9,22.9-22.9s22.9,10.3,22.9,22.9v27.4c-7.1-2.9-14.8-4.5-22.9-4.5c-8.1,0-15.9,1.6-22.9,4.5
				C345.9,342.6,345.9,315.2,345.9,315.2z M368.8,445.2c-25.3,0-45.9-20.6-45.9-45.9c0-25.3,20.6-45.9,45.9-45.9
				s45.9,20.6,45.9,45.9C414.7,424.6,394.1,445.2,368.8,445.2z M384.1,399.3c0,8.4-6.9,15.3-15.3,15.3c-8.4,0-15.3-6.9-15.3-15.3
				s6.9-15.3,15.3-15.3C377.3,384,384.1,390.9,384.1,399.3z"/>
		</g>
	</g>
</g>
<g id="Wolken2">
	<g>
		<path id="MobileMe_1_" class="st21" d="M114.1,475.6c-0.1-1.6-0.2-3.2-0.2-4.9c0-39.2,15.9-67.6,55.2-71
			c39.3-3.4,68.8,17.3,79.8,42.2c6.2-5.3,20.6-8,28.7-5.7c18.8,5.3,28.3,16.6,29.5,32.8c0.1,2.1-0.2,4.1-0.5,6.1
			c26.6,4.2,47,27.5,47,55.5c0,31-25,56.2-55.7,56.2H125.3c-30.8,0-55.7-25.1-55.7-56.2C69.5,503.4,88.7,480.8,114.1,475.6z"/>
	</g>
	<g>
	</g>
	<g>
	</g>
	<g>
	</g>
	<g>
	</g>
</g>
</svg>
