<?xml version="1.0" encoding="utf-8"?>
<!-- Svg Vector Icons : http://www.onlinewebfonts.com/icon -->
<!DOCTYPE svg PUBLIC "-//W3C//DTD SVG 1.1//EN" "http://www.w3.org/Graphics/SVG/1.1/DTD/svg11.dtd">
<svg version="1.1" xmlns="http://www.w3.org/2000/svg" xmlns:xlink="http://www.w3.org/1999/xlink" x="0px" y="0px" viewBox="0 0 1000 1000" enable-background="new 0 0 1000 1000" xml:space="preserve">
<metadata> Svg Vector Icons : http://www.onlinewebfonts.com/icon </metadata>
<g><path d="M935.6,173.3H772.3V64.4c0-30.1-24.4-54.4-54.4-54.4c0,0,0,0-0.1,0c0,0,0,0-0.1,0H282.2c0,0,0,0-0.1,0c0,0,0,0-0.1,0c-30,0-54.4,24.4-54.4,54.4v108.9H64.4c-30,0-54.4,24.4-54.4,54.4c0,30.1,24.4,54.4,54.4,54.4h54.4c0,0,0,0.1,0,0.1v653.3c0,30.1,24.4,54.4,54.4,54.4h653.3c3.8,0,7.4-0.4,11-1.1c1.8-0.4,3.5-0.8,5.2-1.3c1.7-0.5,3.4-1.1,5-1.8c19.5-8.3,33.3-27.6,33.3-50.2v0l0,0V282.3c0,0,0-0.1,0-0.1h54.4c30,0,54.4-24.4,54.4-54.4C990,197.6,965.6,173.3,935.6,173.3z M336.6,118.8h326.9v54.4H336.6V118.8z M554.3,881.2H445.7V282.3c0,0,0-0.1,0-0.1h108.7c0,0,0,0.1,0,0.1V881.2z M336.8,282.2c0,0,0,0.1,0,0.1v598.9h-109V282.3c0,0,0-0.1,0-0.1H336.8z M772.2,282.3v598.9h-109V282.3c0,0,0-0.1,0-0.1h109C772.2,282.2,772.2,282.2,772.2,282.3z"/></g>
</svg>