<?xml version="1.0" encoding="utf-8"?>
<!-- Generator: Adobe Illustrator 23.1.0, SVG Export Plug-In . SVG Version: 6.00 Build 0)  -->
<svg version="1.1" id="Ebene_1" xmlns="http://www.w3.org/2000/svg" xmlns:xlink="http://www.w3.org/1999/xlink" x="0px" y="0px"
	 viewBox="0 0 1000 1000" style="enable-background:new 0 0 1000 1000;" xml:space="preserve">
<style type="text/css">
	.st0{fill:#FFFFFF;}
</style>
<g>
	<g>
		<path class="st0" d="M654.8,607.9l19.2-19.2c21.2-21.2,21.2-55.7,0-76.9l-33.2-33.2c10.7-18.6,19.1-38.6,24.9-59.8h35.9
			c30,0,54.4-24.4,54.4-54.4v-27.2c0-30-24.3-54.4-54.4-54.4h-35.5c-5.6-20.9-13.6-40.8-24.1-59.3l31.9-31.9
			c21.2-21.2,21.2-55.7,0-76.9l-19.2-19.2c-21.2-21.2-55.7-21.2-76.9,0l-31.3,31.3c-19.1-11.1-39.8-19.8-61.6-25.8V64.4
			c0-30.1-24.4-54.4-54.4-54.4h-27.2c-30,0-54.4,24.3-54.4,54.4v36.5c-21.8,6-42.5,14.6-61.6,25.8L256,95.4
			c-21.2-21.2-55.7-21.2-76.9,0l-19.2,19.2c-21.2,21.2-21.2,55.7,0,76.9l31.9,31.9c-10.4,18.5-18.4,38.4-24.1,59.3h-35.5
			c-30.1,0-54.4,24.3-54.4,54.4v27.2c0,30,24.3,54.4,54.4,54.4h35.9c5.9,21.1,14.2,41.2,24.9,59.8l-33.2,33.2
			c-21.2,21.2-21.2,55.7,0,76.9l19.2,19.2c21.2,21.2,55.7,21.2,76.9,0l33.4-33.4c18.6,10.6,38.5,18.8,59.5,24.5v34.8
			c0,30,24.4,54.4,54.4,54.4h27.2c30,0,54.4-24.4,54.4-54.4V599c21-5.7,41-14,59.5-24.5l33.4,33.4
			C599.1,629.1,633.6,629.1,654.8,607.9L654.8,607.9z M417,501.2c-82.6,0-149.6-67-149.6-149.6S334.4,202,417,202
			s149.6,67,149.6,149.6S499.6,501.2,417,501.2z M417,282c-37.6,0-68,30.4-68,68c0,37.5,30.4,68,68,68c37.5,0,68-30.4,68-68
			S454.5,282,417,282z M757.7,792.9c-18.2,0-33,14.8-33,33s14.8,33,33,33s33-14.8,33-33S776,792.9,757.7,792.9z M895.8,793.4h-17.2
			c-2.7-10.1-6.6-19.8-11.7-28.8l15.5-15.5c10.3-10.3,10.3-27,0-37.3l-9.3-9.3c-10.3-10.3-27-10.3-37.3,0l-15.2,15.2
			c-9.3-5.4-19.3-9.6-29.9-12.5v-17.7c0-14.6-11.8-26.4-26.4-26.4h-13.2c-14.6,0-26.4,11.8-26.4,26.4v17.7
			c-10.6,2.9-20.6,7.1-29.9,12.5l-15.2-15.2c-10.3-10.3-27-10.3-37.3,0l-9.3,9.3c-10.3,10.3-10.3,27,0,37.3l15.5,15.5
			c-5.1,9-9,18.6-11.7,28.8h-17.2c-14.6,0-26.4,11.8-26.4,26.4V833c0,14.6,11.8,26.4,26.4,26.4H637c2.8,10.2,6.9,19.9,12.1,29
			l-16.1,16c-10.3,10.3-10.3,27,0,37.3l9.3,9.3c10.3,10.3,27,10.3,37.3,0l16.2-16.2c9,5.1,18.7,9.1,28.9,11.9v16.9
			c0,14.6,11.8,26.4,26.4,26.4h13.2c14.6,0,26.4-11.8,26.4-26.4v-16.9c10.2-2.8,19.9-6.8,28.8-11.9l16.2,16.2
			c10.3,10.3,27,10.3,37.3,0l9.3-9.3c10.3-10.3,10.3-27,0-37.3l-16.1-16.1c5.2-9,9.3-18.7,12.1-29h17.4c14.6,0,26.4-11.8,26.4-26.4
			v-13.2C922.2,805.2,910.4,793.4,895.8,793.4L895.8,793.4z M757.7,899.3c-40.1,0-72.5-32.5-72.5-72.6s32.5-72.5,72.5-72.5
			s72.5,32.5,72.5,72.5C830.3,866.8,797.8,899.3,757.7,899.3z"/>
	</g>
</g>
</svg>
