<?xml version="1.0" encoding="utf-8"?>
<!-- Generator: Adobe Illustrator 23.1.0, SVG Export Plug-In . SVG Version: 6.00 Build 0)  -->
<svg version="1.1" id="Ebene_1" xmlns="http://www.w3.org/2000/svg" xmlns:xlink="http://www.w3.org/1999/xlink" x="0px" y="0px"
	 viewBox="0 0 8 8" style="enable-background:new 0 0 8 8;" xml:space="preserve">
<style type="text/css">
	.st0{display:none;fill:#FFFFFF;}
	.st1{fill:#FFFFFF;}
</style>
<path class="st0" d="M0.1,3.1v1.7H1h2.2V7v0.9h1.7V7.1V4.9h2.2H8V3.1H7.1H4.9V0.9V0.1H3.1V1v2.2H0.9H0.1V3.1z"/>
<g id="g3039" transform="matrix(1,0,0,-1,15.186441,1359.8983)">
	<path id="path3041" class="st1" d="M-12.7,1355.9c-0.4,0-0.8-0.2-1.1-0.5h-0.6c-0.2,0-0.4,0.1-0.6,0.2c-0.2,0.1-0.2,0.3-0.2,0.5
		c0,1,0.2,1.5,0.5,1.5c0,0,0.1,0,0.2-0.1s0.2-0.1,0.4-0.2c0.2-0.1,0.3-0.1,0.5-0.1c0.2,0,0.4,0,0.5,0.1c0-0.1,0-0.2,0-0.3
		C-13,1356.6-12.9,1356.2-12.7,1355.9z M-8.3,1353.3c0-0.3-0.1-0.6-0.3-0.8c-0.2-0.2-0.5-0.3-0.8-0.3H-13c-0.3,0-0.6,0.1-0.8,0.3
		c-0.2,0.2-0.3,0.5-0.3,0.8c0,0.1,0,0.3,0,0.4c0,0.1,0,0.3,0.1,0.4c0,0.2,0.1,0.3,0.1,0.4c0,0.1,0.1,0.3,0.2,0.4
		c0.1,0.1,0.2,0.2,0.3,0.3s0.2,0.2,0.4,0.2c0.1,0.1,0.3,0.1,0.5,0.1c0,0,0.1,0,0.2-0.1s0.2-0.1,0.3-0.2c0.1-0.1,0.3-0.1,0.4-0.2
		c0.2-0.1,0.4-0.1,0.6-0.1s0.4,0,0.6,0.1c0.2,0.1,0.3,0.1,0.4,0.2c0.1,0.1,0.2,0.1,0.3,0.2c0.1,0.1,0.1,0.1,0.2,0.1
		c0.2,0,0.3,0,0.5-0.1c0.1-0.1,0.3-0.1,0.4-0.2c0.1-0.1,0.2-0.2,0.3-0.3c0.1-0.1,0.1-0.3,0.2-0.4s0.1-0.3,0.1-0.4s0-0.3,0.1-0.4
		C-8.3,1353.6-8.3,1353.4-8.3,1353.3z M-12.5,1358.5c0-0.3-0.1-0.5-0.3-0.7c-0.2-0.2-0.5-0.3-0.7-0.3s-0.5,0.1-0.7,0.3
		c-0.2,0.2-0.3,0.5-0.3,0.7s0.1,0.5,0.3,0.7c0.2,0.2,0.5,0.3,0.7,0.3s0.5-0.1,0.7-0.3C-12.6,1359.1-12.5,1358.8-12.5,1358.5z
		 M-9.6,1357c0-0.4-0.2-0.8-0.5-1.1c-0.3-0.3-0.7-0.5-1.1-0.5c-0.4,0-0.8,0.2-1.1,0.5c-0.3,0.3-0.5,0.7-0.5,1.1s0.2,0.8,0.5,1.1
		s0.7,0.5,1.1,0.5c0.4,0,0.8-0.2,1.1-0.5S-9.6,1357.4-9.6,1357z M-7.2,1356c0-0.2-0.1-0.4-0.2-0.5c-0.2-0.1-0.3-0.2-0.6-0.2h-0.6
		c-0.3,0.3-0.6,0.5-1.1,0.5c0.2,0.3,0.3,0.7,0.3,1.1c0,0.1,0,0.2,0,0.3c0.2-0.1,0.4-0.1,0.5-0.1c0.2,0,0.3,0,0.5,0.1
		c0.2,0.1,0.3,0.1,0.4,0.2c0.1,0.1,0.2,0.1,0.2,0.1C-7.4,1357.5-7.2,1357-7.2,1356z M-7.8,1358.5c0-0.3-0.1-0.5-0.3-0.7
		c-0.2-0.2-0.5-0.3-0.7-0.3s-0.5,0.1-0.7,0.3c-0.2,0.2-0.3,0.5-0.3,0.7s0.1,0.5,0.3,0.7c0.2,0.2,0.5,0.3,0.7,0.3s0.5-0.1,0.7-0.3
		C-7.9,1359.1-7.8,1358.8-7.8,1358.5z"/>
</g>
</svg>
