<?xml version="1.0" encoding="utf-8"?>
<!-- Generator: Adobe Illustrator 23.1.0, SVG Export Plug-In . SVG Version: 6.00 Build 0)  -->
<svg version="1.1" id="open" xmlns="http://www.w3.org/2000/svg" xmlns:xlink="http://www.w3.org/1999/xlink" x="0px" y="0px"
	 viewBox="0 0 96 96" style="enable-background:new 0 0 96 96;" xml:space="preserve">
<style type="text/css">
	.st0{fill:#FFFFFF;}
</style>
<g>
	<path class="st0" d="M16,93.5C8.6,93.5,2.5,87.4,2.5,80V16C2.5,8.6,8.6,2.5,16,2.5h28c3,0,5.5,2.5,5.5,5.5S47,13.5,44,13.5H16
		c-1.4,0-2.5,1.1-2.5,2.5v64c0,1.4,1.1,2.5,2.5,2.5h64c1.4,0,2.5-1.1,2.5-2.5V52c0-3,2.5-5.5,5.5-5.5s5.5,2.5,5.5,5.5v28
		c0,7.4-6.1,13.5-13.5,13.5H16z"/>
	<path class="st0" d="M44,4c2.2,0,4,1.8,4,4s-1.8,4-4,4H16c-2.2,0-4,1.8-4,4v64c0,2.2,1.8,4,4,4h64c2.2,0,4-1.8,4-4V52
		c0-2.2,1.8-4,4-4s4,1.8,4,4v28c0,6.6-5.4,12-12,12H16C9.4,92,4,86.6,4,80V16C4,9.4,9.4,4,16,4H44 M44,1H16C7.7,1,1,7.7,1,16v64
		c0,8.3,6.7,15,15,15h64c8.3,0,15-6.7,15-15V52c0-3.9-3.1-7-7-7s-7,3.1-7,7v28c0,0.6-0.4,1-1,1H16c-0.6,0-1-0.4-1-1V16
		c0-0.6,0.4-1,1-1h28c3.9,0,7-3.1,7-7S47.9,1,44,1L44,1z"/>
</g>
<g>
	<path class="st0" d="M48.4,53.1c-1.5,0-2.9-0.6-3.9-1.6c-1-1-1.6-2.4-1.6-3.9c0-1.5,0.6-2.9,1.6-3.9l30.2-30.2H64
		c-3,0-5.5-2.5-5.5-5.5S61,2.5,64,2.5h24c0.4,0,0.7,0,1.1,0.1c0.1,0,0.3,0.1,0.4,0.1l0.1,0c0.2,0,0.3,0.1,0.5,0.2
		c0.1,0.1,0.3,0.1,0.4,0.2l0.2,0.1c0.1,0.1,0.3,0.1,0.4,0.2c0.2,0.1,0.4,0.3,0.7,0.5c0.1,0,0.1,0.1,0.2,0.2L92,4.2l0.1,0.1
		c0.1,0.1,0.3,0.3,0.5,0.6c0.1,0.1,0.2,0.3,0.2,0.4l0.1,0.1c0.1,0.1,0.1,0.3,0.2,0.4c0.1,0.2,0.1,0.3,0.2,0.5l0,0.1
		c0,0.1,0.1,0.3,0.1,0.4c0.1,0.3,0.1,0.6,0.1,0.9l0,0.2v24c0,3-2.5,5.5-5.5,5.5S82.5,35,82.5,32V21.3L52.3,51.5
		C51.3,52.5,49.9,53.1,48.4,53.1z"/>
	<path class="st0" d="M88,4c0.3,0,0.5,0,0.8,0.1c0.1,0,0.2,0.1,0.3,0.1c0.1,0,0.3,0.1,0.4,0.1c0.1,0.1,0.2,0.1,0.3,0.2
		c0.1,0.1,0.2,0.1,0.3,0.2c0.2,0.1,0.4,0.3,0.5,0.4c0,0,0.1,0.1,0.1,0.1c0,0,0.1,0.1,0.1,0.1c0.1,0.2,0.3,0.3,0.4,0.5
		c0.1,0.1,0.1,0.2,0.2,0.3c0.1,0.1,0.1,0.2,0.2,0.3c0.1,0.1,0.1,0.3,0.1,0.4c0,0.1,0.1,0.2,0.1,0.3C92,7.5,92,7.7,92,8c0,0,0,0,0,0
		v24c0,2.2-1.8,4-4,4s-4-1.8-4-4V17.7L51.2,50.4c-0.8,0.8-1.8,1.2-2.8,1.2s-2-0.4-2.8-1.2c-1.6-1.6-1.6-4.1,0-5.7L78.3,12H64
		c-2.2,0-4-1.8-4-4s1.8-4,4-4H88 M88,1H64c-3.9,0-7,3.1-7,7c0,3.9,3.1,7,7,7h7.1L43.5,42.6c-1.3,1.3-2.1,3.1-2.1,4.9
		c0,1.9,0.7,3.6,2.1,4.9c1.3,1.3,3.1,2,4.9,2c1.9,0,3.6-0.7,4.9-2.1L81,24.9V32c0,3.9,3.1,7,7,7c3.9,0,7-3.1,7-7V8V7.8l0-0.1
		c0-0.4-0.1-0.7-0.1-1.1c-0.1-0.3-0.1-0.4-0.2-0.6l0,0c0-0.2-0.1-0.4-0.2-0.7c-0.1-0.3-0.2-0.5-0.3-0.6l0-0.1
		c-0.1-0.1-0.2-0.3-0.3-0.6c-0.2-0.3-0.4-0.6-0.6-0.8C93.1,3.2,93,3.1,92.9,3c-0.1-0.1-0.2-0.2-0.2-0.2c-0.3-0.2-0.5-0.4-0.8-0.6
		c-0.2-0.2-0.4-0.3-0.6-0.3l0,0l0,0l0,0c-0.1-0.1-0.3-0.2-0.6-0.3c-0.3-0.1-0.5-0.2-0.7-0.2l-0.1,0c-0.1,0-0.3-0.1-0.6-0.2
		C88.9,1,88.5,1,88,1L88,1z"/>
</g>
</svg>
