<?xml version="1.0" encoding="utf-8"?>
<!-- Generator: Adobe Illustrator 23.1.0, SVG Export Plug-In . SVG Version: 6.00 Build 0)  -->
<svg version="1.1"
	 id="svg3037" xmlns:cc="http://creativecommons.org/ns#" xmlns:dc="http://purl.org/dc/elements/1.1/" xmlns:inkscape="http://www.inkscape.org/namespaces/inkscape" xmlns:rdf="http://www.w3.org/1999/02/22-rdf-syntax-ns#" xmlns:sodipodi="http://sodipodi.sourceforge.net/DTD/sodipodi-0.dtd" xmlns:svg="http://www.w3.org/2000/svg"
	 xmlns="http://www.w3.org/2000/svg" xmlns:xlink="http://www.w3.org/1999/xlink" x="0px" y="0px" viewBox="0 0 595.3 547"
	 style="enable-background:new 0 0 595.3 547;" xml:space="preserve">
<style type="text/css">
	.st0{fill:#FFFFFF;}
</style>
<sodipodi:namedview  bordercolor="#666666" borderopacity="1" gridtolerance="10" guidetolerance="10" id="namedview3043" inkscape:current-layer="svg3037" inkscape:cx="960" inkscape:cy="896" inkscape:pageopacity="0" inkscape:pageshadow="2" inkscape:window-height="480" inkscape:window-maximized="0" inkscape:window-width="640" inkscape:window-x="0" inkscape:window-y="25" inkscape:zoom="0.13169643" objecttolerance="10" pagecolor="#ffffff" showgrid="false">
	</sodipodi:namedview>
<g id="g3039" transform="matrix(1,0,0,-1,15.186441,1359.8983)">
	<path id="path3041" inkscape:connector-curvature="0" class="st0" d="M170.5,1086.4c-33-1-59.9-14-80.9-39.1H48.7
		c-16.7,0-30.7,4.1-42.1,12.4c-11.4,8.2-17.1,20.3-17.1,36.2c0,71.8,12.6,107.8,37.9,107.8c1.2,0,5.6-2.1,13.3-6.4
		c7.6-4.3,17.6-8.6,29.8-13s24.3-6.6,36.3-6.6c13.6,0,27.2,2.3,40.6,7c-1-7.5-1.5-14.2-1.5-20.1
		C145.7,1136.2,154,1110.2,170.5,1086.4z M497.4,891.9c0-24.4-7.4-43.7-22.3-57.8s-34.6-21.2-59.2-21.2H149.1
		c-24.6,0-44.4,7.1-59.2,21.2s-22.3,33.4-22.3,57.8c0,10.8,0.4,21.3,1.1,31.6c0.7,10.3,2.1,21.4,4.3,33.3
		c2.1,11.9,4.8,22.9,8.1,33.1c3.3,10.2,7.6,20.1,13.1,29.8s11.8,17.9,18.9,24.7c7.1,6.8,15.8,12.3,26.1,16.3
		c10.3,4.1,21.6,6.1,34,6.1c2,0,6.4-2.2,13.1-6.6s14.1-9.3,22.3-14.7c8.1-5.4,19-10.3,32.7-14.7c13.6-4.4,27.4-6.6,41.2-6.6
		c13.8,0,27.6,2.2,41.2,6.6c13.6,4.4,24.5,9.3,32.7,14.7c8.1,5.4,15.6,10.3,22.3,14.7s11.1,6.6,13.1,6.6c12.4,0,23.8-2,34-6.1
		c10.3-4.1,19-9.5,26.1-16.3c7.1-6.8,13.4-15.1,18.9-24.7c5.5-9.7,9.9-19.6,13.1-29.8s6-21.2,8.1-33.1c2.1-11.9,3.6-23,4.3-33.3
		S497.4,902.7,497.4,891.9z M184.8,1281.7c0-21.6-7.6-40-22.9-55.3c-15.3-15.3-33.7-22.9-55.3-22.9s-40,7.6-55.3,22.9
		c-15.3,15.3-22.9,33.7-22.9,55.3c0,21.6,7.6,40,22.9,55.3c15.3,15.3,33.7,22.9,55.3,22.9s40-7.6,55.3-22.9
		C177.2,1321.7,184.8,1303.3,184.8,1281.7z M399.7,1164.5c0-32.4-11.4-60-34.3-82.9c-22.9-22.9-50.5-34.3-82.9-34.3
		s-60,11.4-82.9,34.3s-34.3,50.5-34.3,82.9c0,32.4,11.4,60,34.3,82.9s50.5,34.3,82.9,34.3s60-11.4,82.9-34.3
		C388.3,1224.5,399.7,1196.9,399.7,1164.5z M575.6,1095.8c0-15.9-5.7-27.9-17.1-36.2c-11.4-8.2-25.4-12.4-42.1-12.4h-40.9
		c-21,25-47.9,38.1-80.9,39.1c16.5,23.8,24.7,49.9,24.7,78.1c0,5.9-0.5,12.6-1.5,20.1c13.4-4.7,27-7,40.6-7c12,0,24.1,2.2,36.3,6.6
		s22.1,8.7,29.8,13c7.6,4.3,12.1,6.4,13.3,6.4C562.9,1203.6,575.6,1167.7,575.6,1095.8z M536.5,1281.7c0-21.6-7.6-40-22.9-55.3
		c-15.3-15.3-33.7-22.9-55.3-22.9c-21.6,0-40,7.6-55.3,22.9c-15.3,15.3-22.9,33.7-22.9,55.3c0,21.6,7.6,40,22.9,55.3
		c15.3,15.3,33.7,22.9,55.3,22.9c21.6,0,40-7.6,55.3-22.9C528.9,1321.7,536.5,1303.3,536.5,1281.7z"/>
</g>
</svg>
