<?xml version="1.0" encoding="utf-8"?>
<!-- Generator: Adobe Illustrator 23.1.0, SVG Export Plug-In . SVG Version: 6.00 Build 0)  -->
<svg version="1.1" id="Ebene_1" xmlns="http://www.w3.org/2000/svg" xmlns:xlink="http://www.w3.org/1999/xlink" x="0px" y="0px"
	 viewBox="0 0 50 50" style="enable-background:new 0 0 50 50;" xml:space="preserve">
<style type="text/css">
	.st0{fill:#FFFFFF;}
</style>
<path class="st0" d="M25,2C14.4,2,5.4,9.2,2.8,19h2.1c0.7-2.5,2-4.8,3.5-6.8c1.7,1,3.7,1.8,5.9,2.4c-0.4,1.4-0.7,2.9-0.9,4.4h2
	c0.2-1.4,0.5-2.7,0.8-3.9c2.4,0.5,5,0.8,7.8,0.9v3h2v-3c2.7-0.1,5.3-0.4,7.8-0.9c0.3,1.2,0.6,2.6,0.8,3.9h2c-0.2-1.6-0.5-3-0.9-4.4
	c2.2-0.6,4.2-1.4,5.9-2.4c1.6,2,2.8,4.3,3.5,6.8h2.1C44.6,9.2,35.6,2,25,2z M24,4.1V14c-2.5-0.1-5-0.4-7.2-0.8
	C18.5,8.2,21.1,4.8,24,4.1z M26,4.1c2.9,0.6,5.5,4.1,7.2,9C31,13.6,28.5,13.9,26,14V4.1z M19.1,4.9c-1.8,1.9-3.2,4.5-4.3,7.8
	c-1.9-0.5-3.6-1.2-5.1-2C12.3,7.9,15.5,5.9,19.1,4.9z M30.9,4.9c3.6,1.1,6.9,3.1,9.4,5.8c-1.5,0.8-3.2,1.5-5.1,2
	C34.1,9.4,32.6,6.7,30.9,4.9z M3,21l2.5,8h2.3l2.1-6l2.1,6h2.3l2.6-8h-2.2l-1.6,5.6L11.3,21H8.7l-1.9,5.5L5.2,21H3z M18,21l2.5,8
	h2.3l2.1-6l2.1,6h2.3l2.6-8h-2.2l-1.6,5.6L26.3,21h-2.6l-1.9,5.5L20.2,21H18z M33,21l2.6,8h2.3l2.1-6l2.1,6h2.3l2.6-8h-2.2l-1.6,5.6
	L41.3,21h-2.6l-2,5.5L35.2,21H33z M2.8,31C5.4,40.8,14.4,48,25,48s19.6-7.2,22.2-17h-2.1c-0.7,2.5-2,4.8-3.5,6.8
	c-1.7-1-3.7-1.8-5.9-2.4c0.4-1.4,0.7-2.9,0.9-4.4h-2c-0.2,1.4-0.5,2.7-0.8,3.9c-2.4-0.5-5-0.8-7.8-0.9v-3h-2v3
	c-2.7,0.1-5.3,0.4-7.8,0.9c-0.3-1.2-0.6-2.6-0.8-3.9h-2c0.2,1.6,0.5,3,0.9,4.4c-2.2,0.6-4.2,1.4-5.9,2.4c-1.6-2-2.8-4.3-3.5-6.8H2.8
	z M24,36v9.8c-2.9-0.6-5.5-4.1-7.2-9C19,36.4,21.5,36.1,24,36z M26,36c2.5,0.1,5,0.4,7.2,0.8c-1.6,4.9-4.2,8.4-7.2,9V36z M14.8,37.4
	c1.1,3.2,2.5,5.9,4.3,7.8c-3.6-1.1-6.9-3.1-9.4-5.8C11.2,38.6,12.9,37.9,14.8,37.4z M35.2,37.4c1.9,0.5,3.6,1.2,5.1,2
	c-2.5,2.7-5.8,4.7-9.4,5.8C32.6,43.3,34.1,40.6,35.2,37.4z"/>
</svg>
