<?xml version="1.0" encoding="utf-8"?>
<!-- Generator: Adobe Illustrator 23.1.0, SVG Export Plug-In . SVG Version: 6.00 Build 0)  -->
<svg version="1.1" id="Capa_1" xmlns="http://www.w3.org/2000/svg" xmlns:xlink="http://www.w3.org/1999/xlink" x="0px" y="0px"
	 viewBox="0 0 23.6 23.6" style="enable-background:new 0 0 23.6 23.6;" xml:space="preserve">
<style type="text/css">
	.st0{fill:#FFFFFF;}
</style>
<path class="st0" d="M13.9,19.5c-0.5,0-0.9-0.1-1.1-0.3c-0.2-0.2-0.3-0.5-0.3-0.9c0-0.2,0-0.5,0.1-0.8c0.1-0.4,0.1-0.7,0.2-1l1-3.5
	c0.1-0.3,0.2-0.7,0.2-1.1c0-0.4,0.1-0.6,0.1-0.8c0-0.7-0.3-1.3-0.8-1.8C12.8,9,12,8.7,11.1,8.7C10.6,8.7,10,8.8,9.4,9
	C8.8,9.2,8.2,9.4,7.6,9.7l-0.3,1.1c0.2-0.1,0.4-0.1,0.7-0.2c0.3-0.1,0.5-0.1,0.8-0.1c0.5,0,0.9,0.1,1.1,0.3c0.2,0.2,0.3,0.5,0.3,0.9
	c0,0.2,0,0.5-0.1,0.8c-0.1,0.3-0.1,0.6-0.2,0.9l-1,3.5c-0.1,0.4-0.2,0.7-0.2,1c0,0.3-0.1,0.6-0.1,0.9c0,0.7,0.3,1.3,0.8,1.8
	c0.5,0.5,1.3,0.7,2.2,0.7c0.6,0,1.2-0.1,1.6-0.2c0.5-0.2,1.1-0.4,1.9-0.7l0.3-1.1c-0.1,0.1-0.4,0.1-0.7,0.2
	C14.4,19.5,14.1,19.5,13.9,19.5z"/>
<path class="st0" d="M13.3,2.4c-0.6,0-1.2,0.2-1.7,0.6c-0.5,0.4-0.7,0.9-0.7,1.6c0,0.6,0.2,1.1,0.7,1.5c0.5,0.4,1,0.6,1.7,0.6
	c0.6,0,1.2-0.2,1.7-0.6c0.5-0.4,0.7-0.9,0.7-1.5c0-0.6-0.2-1.1-0.7-1.6C14.5,2.6,13.9,2.4,13.3,2.4z"/>
</svg>
