<?xml version="1.0" encoding="utf-8"?>
<!-- Generator: Adobe Illustrator 23.1.0, SVG Export Plug-In . SVG Version: 6.00 Build 0)  -->
<svg version="1.1" id="Layer_1" xmlns="http://www.w3.org/2000/svg" xmlns:xlink="http://www.w3.org/1999/xlink" x="0px" y="0px"
	 viewBox="0 0 512 512" style="enable-background:new 0 0 512 512;" xml:space="preserve">
<style type="text/css">
	.st0{fill:#9E1512;}
</style>
<g>
	<g>
		<path class="st0" d="M442.9,133.2c15.2-13,24.8-32.2,24.8-53.7c0-38.9-31.7-70.6-70.6-70.6s-70.6,31.7-70.6,70.6
			c0-38.9-31.7-70.6-70.6-70.6s-70.6,31.7-70.6,70.6c0,21.5,9.7,40.8,24.9,53.7c-9.2,4.9-17.5,11.1-24.7,18.5
			c-7.3-7.5-15.8-13.8-24.9-18.6c15.1-13,24.8-32.2,24.8-53.6c0-38.9-31.7-70.6-70.6-70.6S44.1,40.6,44.1,79.5
			c0,21.5,9.6,40.7,24.8,53.7c-31.3,16.4-53.8,49.6-53.8,88.5v28.2c0,7.8,6.1,14.1,13.9,14.1c5.4,0,444.6,0,453.8,0
			c7.8,0,14.1-6.3,14.1-14.1v-28.2C496.9,183.1,474.6,149.8,442.9,133.2z M397.1,37.2c23.4,0,42.4,19,42.4,42.4s-19,42.4-42.4,42.4
			s-42.4-19-42.4-42.4C354.8,56.2,373.8,37.2,397.1,37.2z M326.5,79.6c0,21.4,9.6,40.6,24.8,53.6c-9.2,4.8-17.6,11.1-24.9,18.6
			c-7.2-7.4-15.5-13.6-24.7-18.5C316.8,120.3,326.5,101.1,326.5,79.6z M255.9,37.2c23.4,0,42.4,19,42.4,42.4s-19,42.4-42.4,42.4
			s-42.4-19-42.4-42.4S232.5,37.2,255.9,37.2z M114.7,37.2c23.4,0,42.4,19,42.4,42.4s-19,42.4-42.4,42.4s-42.4-19-42.4-42.4
			S91.3,37.2,114.7,37.2z M157.2,221.7v14.1H43.1v-14.1c0-38.8,32.8-71.5,71.5-71.5c20.9,0,40.5,9.2,53.8,24.9
			C161.2,189,157.2,204.9,157.2,221.7z M326.7,235.8H185.3v-14.1c0-39.5,31.7-71.5,70.6-71.5s70.8,32.1,70.8,71.5V235.8L326.7,235.8
			z M468.9,235.8H354.8v-14.1c0-16.8-4.2-32.7-11.5-46.6c13.3-15.7,32.9-24.9,53.8-24.9c38.8,0,71.7,32.8,71.7,71.5L468.9,235.8
			L468.9,235.8z"/>
	</g>
</g>
<g>
	<g>
		<path class="st0" d="M381.3,270.9c-54.5,0-100.3,38-112.4,88.9h-162l0,0l0,0H41.8c-14.7,0-26.7,11.9-26.7,26.7v44.4
			c0,14.7,11.9,26.7,26.7,26.7s26.7-11.9,26.7-26.7v-17.8h11.8v17.8c0,14.7,11.9,26.7,26.7,26.7s26.7-11.9,26.7-26.7v-17.8H269
			C281,464,326.8,502,381.3,502c63.7,0,115.6-51.8,115.6-115.6S445.1,270.9,381.3,270.9z M381.3,448.7c-34.3,0-62.2-27.9-62.2-62.2
			s27.9-62.2,62.2-62.2s62.2,27.9,62.2,62.2S415.7,448.7,381.3,448.7z"/>
	</g>
</g>
</svg>
