<?xml version="1.0" encoding="utf-8"?>
<!-- Generator: Adobe Illustrator 23.1.0, SVG Export Plug-In . SVG Version: 6.00 Build 0)  -->
<svg version="1.1" id="Layer_1" xmlns="http://www.w3.org/2000/svg" xmlns:xlink="http://www.w3.org/1999/xlink" x="0px" y="0px"
	 viewBox="0 0 512 512" style="enable-background:new 0 0 512 512;" xml:space="preserve">
<style type="text/css">
	.st0{fill:#999999;}
</style>
<g>
	<g>
		<path class="st0" d="M326.5,161c-30.7,0-56.4,21.4-63.2,50h-91.1c0,0,0,0,0,0s0,0,0,0h-36.6c-8.3,0-15,6.7-15,15v25
			c0,8.3,6.7,15,15,15s15-6.7,15-15v-10h6.6v10c0,8.3,6.7,15,15,15s15-6.7,15-15v-10h76.1c6.8,28.6,32.6,50,63.2,50
			c35.8,0,65-29.2,65-65S362.3,161,326.5,161z M326.5,261c-19.3,0-35-15.7-35-35s15.7-35,35-35s35,15.7,35,35S345.8,261,326.5,261z"
			/>
	</g>
</g>
<g>
	<g>
		<path class="st0" d="M467,101H45c-24.8,0-45,20.2-45,45v220c0,24.8,20.2,45,45,45h422c24.8,0,45-20.2,45-45V146
			C512,121.2,491.8,101,467,101z M482,366c0,8.3-6.7,15-15,15H45c-8.3,0-15-6.7-15-15v-15h452V366z M482,321H30V146
			c0-8.3,6.7-15,15-15h422c8.3,0,15,6.7,15,15V321z"/>
	</g>
</g>
</svg>
