<?xml version="1.0" encoding="utf-8"?>
<!-- Generator: Adobe Illustrator 23.1.0, SVG Export Plug-In . SVG Version: 6.00 Build 0)  -->
<svg version="1.1" xmlns="http://www.w3.org/2000/svg" xmlns:xlink="http://www.w3.org/1999/xlink" x="0px" y="0px"
	 viewBox="0 0 420 400" style="enable-background:new 0 0 420 400;" xml:space="preserve">
<style type="text/css">
	.st0{display:none;}
	.st1{fill:#D2EDFC;}
	.st2{fill:#9DD4F1;}
	.st3{fill:#282828;}
	.st4{fill:#B7E1F7;}
</style>
<g id="Ebene_2" class="st0">
	
		<image style="display:inline;overflow:visible;" width="622" height="690" xlink:href="6D559183.jpg"  transform="matrix(1 0 0 1 -78.4156 -197.3186)">
	</image>
</g>
<g id="Ebene_1">
	<g>
		<path id="MobileMe_1_" class="st1" d="M-32-21.9c-0.1-1.1-0.1-2.2-0.1-3.3c0-26.2,10.6-45.1,36.8-47.4C31-74.8,50.6-61,57.9-44.4
			c4.1-3.5,13.7-5.3,19.1-3.8C89.6-44.6,96-37,96.7-26.3c0.1,1.4-0.1,2.7-0.3,4c17.8,2.8,31.3,18.3,31.3,37
			c0,20.7-16.6,37.5-37.2,37.5h-115c-20.5,0-37.2-16.8-37.2-37.5C-61.7-3.3-48.9-18.4-32-21.9z"/>
	</g>
	<g>
		<path id="MobileMe" class="st2" d="M486.2,19.2c0,14.5-11.6,26.2-26,26.2h-80.4c-14.3,0-26-11.7-26-26.2
			c0-13.1,9.5-23.9,21.9-25.9c-0.2-0.9-0.2-1.9-0.2-2.8c0-9.2,7.4-16.6,16.5-16.6c4.1,0,7.8,1.5,10.6,3.9
			c5.1-11.6,11.7-22.2,30.1-22.2c22.3,0,32.9,17.3,32.9,35.6c0,0.8,0,1.5-0.1,2.3C477.3-4.1,486.2,6.5,486.2,19.2z"/>
	</g>
	<g>
		<g>
			<path class="st3" d="M519,105.4h-17.5V82c0-45-36.6-81.6-81.6-81.6S338.4,37.1,338.4,82v23.3H321c-3.2,0-5.8,2.6-5.8,5.8v145.7
				c0,12.9,10.5,23.3,23.3,23.3h163.1c12.9,0,23.3-10.5,23.3-23.3V111.2C524.9,108,522.3,105.4,519,105.4z M437.4,227.1
				c0.2,1.6-0.3,3.3-1.5,4.5c-1.1,1.2-2.7,1.9-4.3,1.9h-23.3c-1.7,0-3.2-0.7-4.3-1.9c-1.1-1.2-1.6-2.9-1.5-4.5l3.7-33.1
				c-6-4.3-9.5-11.2-9.5-18.7c0-12.9,10.5-23.3,23.3-23.3s23.3,10.5,23.3,23.3c0,7.5-3.6,14.4-9.5,18.7L437.4,227.1z M466.6,105.4
				h-93.2V82c0-25.7,20.9-46.6,46.6-46.6s46.6,20.9,46.6,46.6V105.4z"/>
		</g>
	</g>
	<g>
		<path id="MobileMe_3_" class="st2" d="M66.2,422.4c0,14.5-11.6,26.2-26,26.2h-80.4c-14.3,0-26-11.7-26-26.2
			c0-13.1,9.5-23.9,21.9-25.9c-0.2-0.9-0.2-1.9-0.2-2.8c0-9.2,7.4-16.6,16.5-16.6c4.1,0,7.8,1.5,10.6,3.9
			c5.1-11.6,11.7-22.2,30.1-22.2c22.3,0,32.9,17.3,32.9,35.6c0,0.8,0,1.5-0.1,2.3C57.3,399.2,66.2,409.8,66.2,422.4z"/>
	</g>
	<g>
		<path id="MobileMe_4_" class="st4" d="M406.5,6.1c0,12.6-10.2,22.9-22.7,22.9h-70.3c-12.5,0-22.7-10.2-22.7-22.9
			c0-11.4,8.3-20.9,19.1-22.6c-0.1-0.8-0.2-1.6-0.2-2.5c0-8,6.4-14.5,14.4-14.5c3.5,0,6.8,1.3,9.3,3.4c4.5-10.1,10.2-19.4,26.3-19.4
			c19.5,0,28.7,15.1,28.7,31.1c0,0.7,0,1.3-0.1,2C398.7-14.2,406.5-5,406.5,6.1z"/>
	</g>
</g>
</svg>
