<?xml version="1.0" encoding="utf-8"?>
<!-- Generator: Adobe Illustrator 23.0.6, SVG Export Plug-In . SVG Version: 6.00 Build 0)  -->
<svg version="1.1" xmlns="http://www.w3.org/2000/svg" xmlns:xlink="http://www.w3.org/1999/xlink" x="0px" y="0px"
	 viewBox="0 0 3840 2160" style="enable-background:new 0 0 3840 2160;" xml:space="preserve">
<style type="text/css">
	.st0{fill:#D2EDFC;}
	.st1{fill:#9DD4F1;}
	.st2{fill:#282828;}
	.st3{fill:#B7E1F7;}
</style>
<g id="Ebene_1">
	<g>
		<path id="MobileMe_1_" class="st0" d="M669.13,453.96c-0.53-7.72-0.86-15.52-0.86-23.4c0-188.27,76.29-324.62,265.08-340.81
			c188.63-16.17,330.17,83.18,382.81,202.7c29.53-25.32,98.87-38.18,137.71-27.15c90.09,25.6,135.93,79.82,141.42,157.41
			c0.71,9.97-0.89,19.7-2.51,29.14c127.8,20.38,225.49,131.78,225.49,266.25c0,148.89-119.78,269.59-267.53,269.59H722.82
			c-147.75,0-267.58-120.7-267.58-269.59C455.24,587.76,547.08,479.02,669.13,453.96z"/>
	</g>
	<g>
		<path id="MobileMe" class="st1" d="M2406.4,457.13c0,104.07-83.76,188.44-187.04,188.44h-578.72c-103.28,0-187-84.37-187-188.44
			c0-93.99,68.28-171.86,157.62-186.11c-1.13-6.6-1.76-13.38-1.76-20.37c0-65.94,53.06-119.39,118.52-119.39
			c29.2,0,55.95,10.64,76.59,28.34c36.8-83.54,83.97-159.79,216.31-159.79c160.5,0,236.57,124.72,236.57,256.32
			c0,5.5-0.23,10.96-0.6,16.35C2342.2,290,2406.4,366.01,2406.4,457.13z"/>
	</g>
	<g>
		<g>
			<path class="st2" d="M3357.6,636.9h-105.32V496.47c0-271-220.47-491.47-491.47-491.47s-491.47,220.47-491.47,491.47V636.9
				h-105.32c-19.4,0-35.11,15.7-35.11,35.11v877.63c0,77.44,62.98,140.42,140.42,140.42h982.95c77.44,0,140.42-62.98,140.42-140.42
				V672C3392.71,652.6,3377,636.9,3357.6,636.9z M2865.92,1370.23c1.1,9.91-2.09,19.85-8.74,27.29
				c-6.65,7.44-16.18,11.69-26.16,11.69H2690.6c-9.98,0-19.51-4.25-26.16-11.69s-9.84-17.38-8.74-27.29l22.15-199.15
				c-35.96-26.16-57.46-67.54-57.46-112.93c0-77.44,62.98-140.42,140.42-140.42s140.42,62.98,140.42,140.42
				c0,45.39-21.49,86.77-57.46,112.93L2865.92,1370.23z M3041.65,636.9h-561.68V496.47c0-154.85,125.99-280.84,280.84-280.84
				s280.84,125.99,280.84,280.84V636.9z"/>
		</g>
	</g>
	<g>
		<path id="MobileMe_3_" class="st1" d="M1453.78,1341.56c0,104.07-83.76,188.44-187.04,188.44H688.02
			c-103.28,0-187-84.37-187-188.44c0-93.99,68.28-171.86,157.62-186.11c-1.13-6.6-1.76-13.38-1.76-20.37
			c0-65.94,53.06-119.39,118.52-119.39c29.2,0,55.95,10.64,76.59,28.34c36.8-83.54,83.97-159.79,216.31-159.79
			c160.5,0,236.57,124.72,236.57,256.32c0,5.5-0.23,10.96-0.6,16.35C1389.58,1174.43,1453.78,1250.44,1453.78,1341.56z"/>
	</g>
</g>
<g id="Ebene_2">
	<g>
		<path id="MobileMe_2_" class="st3" d="M1638.39,1995.31c0,90.96-73.2,164.69-163.47,164.69H969.15
			c-90.26,0-163.44-73.74-163.44-164.69c0-82.15,59.68-150.2,137.75-162.65c-0.99-5.77-1.54-11.7-1.54-17.8
			c0-57.63,46.37-104.34,103.58-104.34c25.52,0,48.9,9.3,66.94,24.76c32.16-73.01,73.39-139.65,189.05-139.65
			c140.27,0,206.75,109,206.75,224.02c0,4.81-0.2,9.58-0.52,14.29C1582.29,1849.24,1638.39,1915.67,1638.39,1995.31z"/>
	</g>
</g>
</svg>
