<?xml version="1.0" encoding="utf-8"?>
<!-- Generator: Adobe Illustrator 23.1.0, SVG Export Plug-In . SVG Version: 6.00 Build 0)  -->
<svg version="1.1" id="Ebene_1" xmlns="http://www.w3.org/2000/svg" xmlns:xlink="http://www.w3.org/1999/xlink" x="0px" y="0px"
	 viewBox="0 0 600 600" style="enable-background:new 0 0 600 600;" xml:space="preserve">
<style type="text/css">
	.st0{fill:#D2EDFC;}
	.st1{fill:#9DD4F1;}
	.st2{fill:#282828;}
	.st3{fill:#B7E1F7;}
</style>
<g>
	<path id="MobileMe_1_" class="st0" d="M38.1,77.5c-0.1-1.1-0.1-2.2-0.1-3.3c0-26.2,10.6-45.1,36.8-47.4
		c26.2-2.2,45.9,11.6,53.2,28.2c4.1-3.5,13.7-5.3,19.1-3.8c12.5,3.6,18.9,11.1,19.6,21.9c0.1,1.4-0.1,2.7-0.3,4
		c17.8,2.8,31.3,18.3,31.3,37c0,20.7-16.6,37.5-37.2,37.5h-115c-20.5,0-37.2-16.8-37.2-37.5C8.4,96.1,21.2,81,38.1,77.5z"/>
</g>
<g>
	<path id="MobileMe" class="st1" d="M556.3,118.6c0,14.5-11.6,26.2-26,26.2h-80.4c-14.3,0-26-11.7-26-26.2
		c0-13.1,9.5-23.9,21.9-25.9c-0.2-0.9-0.2-1.9-0.2-2.8c0-9.2,7.4-16.6,16.5-16.6c4.1,0,7.8,1.5,10.6,3.9
		c5.1-11.6,11.7-22.2,30.1-22.2c22.3,0,32.9,17.3,32.9,35.6c0,0.8,0,1.5-0.1,2.3C547.4,95.4,556.3,106,556.3,118.6z"/>
</g>
<g>
	<g>
		<path class="st2" d="M589.1,204.8h-17.5v-23.3c0-45-36.6-81.6-81.6-81.6s-81.6,36.6-81.6,81.6v23.3h-17.5c-3.2,0-5.8,2.6-5.8,5.8
			v145.7c0,12.9,10.5,23.3,23.3,23.3h163.1c12.9,0,23.3-10.5,23.3-23.3V210.6C595,207.4,592.4,204.8,589.1,204.8z M507.5,326.5
			c0.2,1.6-0.3,3.3-1.5,4.5c-1.1,1.2-2.7,1.9-4.3,1.9h-23.3c-1.7,0-3.2-0.7-4.3-1.9c-1.1-1.2-1.6-2.9-1.5-4.5l3.7-33.1
			c-6-4.3-9.5-11.2-9.5-18.7c0-12.9,10.5-23.3,23.3-23.3s23.3,10.5,23.3,23.3c0,7.5-3.6,14.4-9.5,18.7L507.5,326.5z M536.7,204.8
			h-93.2v-23.3c0-25.7,20.9-46.6,46.6-46.6s46.6,20.9,46.6,46.6V204.8z"/>
	</g>
</g>
<g>
	<path id="MobileMe_3_" class="st1" d="M136.3,521.9c0,14.5-11.6,26.2-26,26.2H29.9c-14.3,0-26-11.7-26-26.2
		c0-13.1,9.5-23.9,21.9-25.9c-0.2-0.9-0.2-1.9-0.2-2.8c0-9.2,7.4-16.6,16.5-16.6c4.1,0,7.8,1.5,10.6,3.9
		c5.1-11.6,11.7-22.2,30.1-22.2c22.3,0,32.9,17.3,32.9,35.6c0,0.8,0,1.5-0.1,2.3C127.4,498.7,136.3,509.2,136.3,521.9z"/>
</g>
<g>
	<path id="MobileMe_4_" class="st3" d="M476.6,105.5c0,12.6-10.2,22.9-22.7,22.9h-70.3c-12.5,0-22.7-10.2-22.7-22.9
		c0-11.4,8.3-20.9,19.1-22.6c-0.1-0.8-0.2-1.6-0.2-2.5c0-8,6.4-14.5,14.4-14.5c3.5,0,6.8,1.3,9.3,3.4C408,59.2,413.7,50,429.8,50
		c19.5,0,28.7,15.1,28.7,31.1c0,0.7,0,1.3-0.1,2C468.8,85.2,476.6,94.4,476.6,105.5z"/>
</g>
</svg>
