<?xml version="1.0" encoding="utf-8"?>
<!-- Generator: Adobe Illustrator 23.1.0, SVG Export Plug-In . SVG Version: 6.00 Build 0)  -->
<svg version="1.1" id="Ebene_1" xmlns="http://www.w3.org/2000/svg" xmlns:xlink="http://www.w3.org/1999/xlink" x="0px" y="0px"
	 viewBox="0 0 3840 2160" style="enable-background:new 0 0 3840 2160;" xml:space="preserve">
<style type="text/css">
	.st0{fill:#D2EDFC;}
	.st1{fill:#9DD4F1;}
	.st2{fill:#B7E1F7;}
</style>
<g>
	<g>
		<path id="MobileMe_1_" class="st0" d="M456.5,375.7c-0.5-6.8-0.8-13.8-0.8-20.7c0-166.9,67.6-287.8,235-302.1
			c167.2-14.3,292.7,73.7,339.4,179.7c26.2-22.4,87.7-33.8,122.1-24.1c79.9,22.7,120.5,70.8,125.4,139.5c0.6,8.8-0.8,17.5-2.2,25.8
			c113.3,18.1,199.9,116.8,199.9,236c0,132-106.2,239-237.2,239h-734c-131,0-237.2-107-237.2-239C266.9,494.4,348.3,398,456.5,375.7
			z"/>
	</g>
	<g>
		<path id="MobileMe" class="st1" d="M2400.2,456.6c0,92.3-74.3,167.1-165.8,167.1h-513c-91.6,0-165.8-74.8-165.8-167.1
			c0-83.3,60.5-152.4,139.7-165c-1-5.9-1.6-11.9-1.6-18.1c0-58.5,47-105.8,105.1-105.8c25.9,0,49.6,9.4,67.9,25.1
			c32.6-74.1,74.4-141.7,191.8-141.7c142.3,0,209.7,110.6,209.7,227.2c0,4.9-0.2,9.7-0.5,14.5
			C2343.3,308.4,2400.2,375.8,2400.2,456.6z"/>
	</g>
	<g>
		<path id="MobileMe_3_" class="st1" d="M3671.1,456.6c0,92.3-74.3,167.1-165.8,167.1h-513c-91.6,0-165.8-74.8-165.8-167.1
			c0-83.3,60.5-152.4,139.7-165c-1-5.9-1.6-11.9-1.6-18.1c0-58.5,47-105.8,105.1-105.8c25.9,0,49.6,9.4,67.9,25.1
			c32.6-74.1,74.4-141.7,191.8-141.7c142.3,0,209.7,110.6,209.7,227.2c0,4.9-0.2,9.7-0.5,14.5
			C3614.2,308.4,3671.1,375.8,3671.1,456.6z"/>
	</g>
</g>
<g>
	<g>
		<path id="MobileMe_2_" class="st2" d="M1779.4,818.8c0,91-73.2,164.7-163.5,164.7h-505.8c-90.3,0-163.4-73.7-163.4-164.7
			c0-82.2,59.7-150.2,137.8-162.7c-1-5.8-1.5-11.7-1.5-17.8c0-57.6,46.4-104.3,103.6-104.3c25.5,0,48.9,9.3,66.9,24.8
			c32.2-73,73.4-139.7,189.1-139.7c140.3,0,206.8,109,206.8,224c0,4.8-0.2,9.6-0.5,14.3C1723.3,672.7,1779.4,739.2,1779.4,818.8z"/>
	</g>
</g>
<g>
	<g>
		<path id="MobileMe_6_" class="st0" d="M1283.4,175.5c-0.2-3.6-0.4-7.2-0.4-10.8c0-86.9,35.2-149.9,122.4-157.4
			c87.1-7.5,152.4,38.4,176.7,93.6c13.6-11.7,45.6-17.6,63.6-12.5c41.6,11.8,62.8,36.9,65.3,72.7c0.3,4.6-0.4,9.1-1.2,13.5
			c59,9.4,104.1,60.8,104.1,122.9c0,68.7-55.3,124.5-123.5,124.5h-382.3c-68.2,0-123.5-55.7-123.5-124.5
			C1184.6,237.3,1227,187.1,1283.4,175.5z"/>
	</g>
	<g>
		<path id="MobileMe_5_" class="st1" d="M2093.4,845.7c0,48-38.7,87-86.4,87h-267.2c-47.7,0-86.3-39-86.3-87
			c0-43.4,31.5-79.3,72.8-85.9c-0.5-3-0.8-6.2-0.8-9.4c0-30.4,24.5-55.1,54.7-55.1c13.5,0,25.8,4.9,35.4,13.1
			c17-38.6,38.8-73.8,99.9-73.8c74.1,0,109.2,57.6,109.2,118.3c0,2.5-0.1,5.1-0.3,7.5C2063.8,768.5,2093.4,803.6,2093.4,845.7z"/>
	</g>
	<g>
		<path id="MobileMe_4_" class="st1" d="M2957.6,217.6c0,48-38.7,87-86.4,87H2604c-47.7,0-86.3-39-86.3-87
			c0-43.4,31.5-79.3,72.8-85.9c-0.5-3-0.8-6.2-0.8-9.4c0-30.4,24.5-55.1,54.7-55.1c13.5,0,25.8,4.9,35.4,13.1
			c17-38.6,38.8-73.8,99.9-73.8c74.1,0,109.2,57.6,109.2,118.3c0,2.5-0.1,5.1-0.3,7.5C2927.9,140.4,2957.6,175.5,2957.6,217.6z"/>
	</g>
</g>
<g>
	<g>
		<path id="MobileMe_7_" class="st2" d="M2869,511.4c0,47.5-38.2,86-85.4,86h-264.2c-47.2,0-85.4-38.5-85.4-86
			c0-42.9,31.2-78.5,72-85c-0.5-3-0.8-6.1-0.8-9.3c0-30.1,24.2-54.5,54.1-54.5c13.3,0,25.5,4.9,35,12.9c16.8-38.1,38.3-73,98.8-73
			c73.3,0,108,56.9,108,117c0,2.5-0.1,5-0.3,7.5C2839.7,435.1,2869,469.8,2869,511.4z"/>
	</g>
</g>
</svg>
