<?xml version="1.0" encoding="utf-8"?>
<!-- Generator: Adobe Illustrator 23.1.0, SVG Export Plug-In . SVG Version: 6.00 Build 0)  -->
<svg version="1.1" id="Ebene_1" xmlns="http://www.w3.org/2000/svg" xmlns:xlink="http://www.w3.org/1999/xlink" x="0px" y="0px"
	 viewBox="0 0 1500 1000" style="enable-background:new 0 0 1500 1000;" xml:space="preserve">
<style type="text/css">
	.st0{display:none;}
	.st1{display:inline;fill:#FFFFFF;stroke:#000000;stroke-miterlimit:10;}
	.st2{display:inline;fill:#7CD438;}
	.st3{display:inline;fill:#E33D54;}
	.st4{fill:#9DD4F1;}
	.st5{fill:#B7E1F7;}
	.st6{fill:#A60D05;}
	.st7{fill:#D31E14;}
	.st8{fill:#10A422;}
	.st9{fill:#C9132C;}
	.st10{fill:#C1272D;}
	.st11{fill:#EF4840;}
	.st12{fill:#95052E;}
	.st13{fill:#9E051A;}
	.st14{fill:#B10D24;}
	.st15{fill:#A62905;}
	.st16{fill:#E73128;}
	.st17{fill:#BA160E;}
	.st18{fill:#96052C;}
	.st19{fill:#BF1241;}
	.st20{fill:#FFFFFF;}
	.st21{fill:#D2EDFC;}
</style>
<g id="Background" class="st0">
	<rect x="-0.7" y="1" class="st1" width="1500" height="1000"/>
</g>
<g id="BackgroundCloud" class="st0">
	<polygon class="st2" points="276.9,719.7 334.2,777 331.1,676.4 	"/>
	<polygon class="st3" points="267.3,652.8 327.7,740.7 395,667.2 	"/>
	<polygon class="st2" points="318,571.5 256.3,626.3 228.7,581.7 	"/>
	<polygon class="st2" points="222.9,379.4 175.1,453.4 259.7,445.2 259.3,391.6 	"/>
	<polygon class="st3" points="244.3,554.6 296.4,633.5 338.2,576.7 291.3,497.4 	"/>
	<polygon class="st2" points="224.1,479.8 239.6,545.1 333.7,495 	"/>
	<polygon class="st3" points="250.6,523.3 300.4,462.1 215.6,390.8 	"/>
	<polygon class="st2" points="302.7,592.4 273.3,633.5 291.3,676.4 373.1,646.2 	"/>
	<polygon class="st2" points="244.3,384 169.6,358.4 191,342.6 236.2,317.4 	"/>
	<polygon class="st3" points="194.8,288 202.5,350.7 246.2,337 259.7,283.4 246.2,267.8 	"/>
	<polygon class="st2" points="226,204.9 208.5,262 232.1,293 255.9,238.3 248.3,189 	"/>
	<polygon class="st3" points="309.2,258.8 210.2,199.8 259.7,181.4 	"/>
	<polygon class="st2" points="278.8,171.9 277.2,221 337.7,256.3 331.3,222.5 	"/>
	<polygon class="st3" points="361.4,138.2 296.7,157.8 352.5,237.8 372.5,192.6 	"/>
	<polygon class="st2" points="414.7,126.5 364.3,173.3 388.1,220.1 430.7,186 	"/>
	<polygon class="st3" points="490.7,178.7 451.8,249.9 419.2,222.5 419.2,188.6 417.3,173.3 	"/>
	<polygon class="st3" points="469.9,267.8 459.6,200.9 505.6,203.5 513.1,237.8 	"/>
	<polygon class="st3" points="492.1,237.8 564.3,258.8 496.2,331.6 508.9,280.1 	"/>
	<polygon class="st3" points="492.1,314.9 522.4,364.3 552.5,342.6 542.4,312.7 	"/>
</g>
<g id="Wolken1">
	<g>
		<path id="MobileMe" class="st4" d="M821.3,233.4c0,47-37.8,85.1-84.4,85.1H475.6c-46.6,0-84.4-38.1-84.4-85.1
			c0-42.4,30.8-77.6,71.2-84c-0.5-3-0.8-6-0.8-9.2c0-29.8,24-53.9,53.5-53.9c13.2,0,25.3,4.8,34.6,12.8
			C566.3,61.4,587.6,27,647.4,27c72.5,0,106.8,56.3,106.8,115.7c0,2.5-0.1,4.9-0.3,7.4C792.3,157.9,821.3,192.2,821.3,233.4z"/>
	</g>
	<g>
		<path id="MobileMe_2_" class="st5" d="M459.2,197.2c0,34.3-27.6,62-61.6,62H207.1c-34,0-61.6-27.8-61.6-62
			c0-30.9,22.5-56.6,51.9-61.3c-0.4-2.2-0.6-4.4-0.6-6.7c0-21.7,17.5-39.3,39-39.3c9.6,0,18.4,3.5,25.2,9.3
			c12.1-27.5,27.6-52.6,71.2-52.6c52.8,0,77.9,41.1,77.9,84.4c0,1.8-0.1,3.6-0.2,5.4C438,142.2,459.2,167.2,459.2,197.2z"/>
	</g>
</g>
<g id="Fonts">
	<g id="Shatten">
		<g>
			<rect x="872.3" y="715.7" class="st6" width="2.7" height="13.3"/>
			<polygon class="st6" points="875,729 883.1,715.7 875,715.7 			"/>
			<rect x="872.3" y="714.3" class="st6" width="10.9" height="1.4"/>
		</g>
		<g>
			<polygon class="st6" points="1291.5,576.5 1289.8,573.7 1273.3,580 1277.5,591.5 1282.4,590.1 1283.3,589.8 			"/>
			<polygon class="st6" points="1283.3,589.8 1291.5,576.5 1278.6,581.6 			"/>
		</g>
		<g>
			<polygon class="st6" points="1093.7,576.5 1092,573.7 1075.5,580 1079.7,591.5 1084.6,590.1 1085.5,589.8 			"/>
			<polygon class="st6" points="1085.5,589.8 1093.7,576.5 1080.8,581.6 			"/>
		</g>
		<g>
			<polygon class="st6" points="539.9,729 538.4,729 538.4,715.7 543.1,715.7 			"/>
			<polyline class="st6" points="539.9,729 548.1,715.7 539.9,715.7 539.9,729 			"/>
			<polygon class="st6" points="538.4,715.7 538.4,713.4 548.1,713.4 548.1,715.7 			"/>
		</g>
		<g>
			<polygon class="st6" points="497.2,459.1 489.1,459.1 489.1,460.1 497.2,460 			"/>
			<polyline class="st6" points="489.1,459.1 497.2,445.8 497.2,459.1 489.1,459.1 			"/>
			<rect x="497.2" y="445.8" class="st6" width="1.8" height="14.3"/>
		</g>
		<g>
			<path class="st6" d="M901.2,671.6l8.1-13.3c0,0,1.7,4.4,4,9.1L901.2,671.6z"/>
			<path class="st6" d="M901.2,671.6c0,0,1.5,3.9,1.9,4.5l25.2-7.9l-6.6-14l-12.4,4L901.2,671.6z"/>
		</g>
		<g>
			<path class="st6" d="M1099,671.6l8.1-13.3c0,0,1.7,4.4,4,9.1L1099,671.6z"/>
			<path class="st6" d="M1099,671.6c0,0,1.5,3.9,1.9,4.5l25.2-7.9l-6.6-14l-12.4,4L1099,671.6z"/>
		</g>
		<g>
			<polygon class="st6" points="753.6,594.6 754.1,591.9 745.7,590 736.8,593.5 734.7,604 745.5,607.9 			"/>
			<path class="st6" d="M745.5,607.9l8.1-13.3l-3.2-1.1C750.4,593.5,746.5,599.9,745.5,607.9z"/>
		</g>
	</g>
	<g>
		<g>
			<path class="st6" d="M600.1,459.1c50.9,0,86.4,33.9,86.4,85.6s-36.6,85.6-86.4,85.6H540V729h-50.9V459.1H600.1z M540,584h55.1
				c24.3,0,40.5-15.4,40.5-39.3s-16.2-39.3-40.5-39.3H540V584z"/>
			<path class="st6" d="M792.1,532.4c50.1,0,82.9,28.1,82.9,76V729h-47v-24.7h-3.9c-6.2,11.2-21.2,30.1-58.6,30.1
				c-39.3,0-68.6-20.4-68.6-56.7s30.1-52.8,70.2-59l60.1-9.3v-4.6c0-18.5-10.8-33.9-37-33.9s-40.1,15.4-44.7,37l-46.7-15.8
				C711.9,560.5,742,532.4,792.1,532.4z M776.7,697.4c30.8,0,50.5-20,50.5-48.6v-5l-54.8,8.5c-17.4,2.7-27,10.4-27,22.7
				C745.5,687.4,755.1,697.4,776.7,697.4z"/>
			<path class="st6" d="M989.1,532.4c44.7,0,77.9,22,96.4,57.5l-43.2,17.4c-10-29.7-33.2-37-52.4-37c-19.3,0-31.2,6.6-31.2,18.9
				c0,12.3,10,17.4,30.8,21.6l19.3,3.9c39.3,7.7,74.4,19.7,74.4,59s-34.7,60.9-81.7,60.9c-47.8,0-84.4-21.6-100.2-62.8l44-15.4
				c8.9,32,31.6,40.5,55.5,40.5s35.5-8.5,35.5-20.8s-10.8-16.2-33.2-20.8l-19.3-3.9c-40.1-8.1-72.1-24.3-72.1-60.5
				S944.4,532.4,989.1,532.4z"/>
			<path class="st6" d="M1186.9,532.4c44.7,0,77.9,22,96.4,57.5l-43.2,17.4c-10-29.7-33.2-37-52.4-37c-19.3,0-31.2,6.6-31.2,18.9
				c0,12.3,10,17.4,30.8,21.6l19.3,3.9c39.3,7.7,74.4,19.7,74.4,59s-34.7,60.9-81.7,60.9c-47.8,0-84.4-21.6-100.2-62.8l44-15.4
				c8.9,32,31.6,40.5,55.5,40.5s35.5-8.5,35.5-20.8s-10.8-16.2-33.2-20.8l-19.3-3.9c-40.1-8.1-72.1-24.3-72.1-60.5
				S1142.2,532.4,1186.9,532.4z"/>
		</g>
		<g>
			<path class="st7" d="M608.2,445.8c50.9,0,86.4,33.9,86.4,85.6S658,617,608.2,617h-60.1v98.7h-50.9V445.8H608.2z M548.1,570.7
				h55.1c24.3,0,40.5-15.4,40.5-39.3S627.5,492,603.2,492h-55.1L548.1,570.7L548.1,570.7z"/>
			<path class="st7" d="M800.2,519c50.1,0,82.9,28.1,82.9,76v120.7h-47V691h-3.9c-6.2,11.2-21.2,30.1-58.6,30.1
				c-39.3,0-68.6-20.4-68.6-56.7s30.1-52.8,70.2-59l60.1-9.3v-4.6c0-18.5-10.8-33.9-37-33.9s-40.1,15.4-44.7,37l-46.7-15.8
				C720,547.2,750.1,519,800.2,519z M784.8,684.1c30.8,0,50.5-20,50.5-48.6v-5l-54.8,8.5c-17.4,2.7-27,10.4-27,22.7
				C753.6,674,763.2,684.1,784.8,684.1z"/>
			<path class="st7" d="M997.3,519c44.7,0,77.9,22,96.4,57.5l-43.2,17.4c-10-29.7-33.2-37-52.4-37c-19.3,0-31.2,6.6-31.2,18.9
				c0,12.3,10,17.4,30.8,21.6l19.3,3.9c39.3,7.7,74.4,19.7,74.4,59s-34.7,60.9-81.7,60.9c-47.8,0-84.4-21.6-100.2-62.8l44-15.4
				c8.9,32,31.6,40.5,55.5,40.5s35.5-8.5,35.5-20.8s-10.8-16.2-33.2-20.8L992,638c-40.1-8.1-72.1-24.3-72.1-60.5
				S952.5,519,997.3,519z"/>
			<path class="st7" d="M1195.1,519c44.7,0,77.9,22,96.4,57.5l-43.2,17.4c-10-29.7-33.2-37-52.4-37c-19.3,0-31.2,6.6-31.2,18.9
				c0,12.3,10,17.4,30.8,21.6l19.3,3.9c39.3,7.7,74.4,19.7,74.4,59s-34.7,60.9-81.7,60.9c-47.8,0-84.4-21.6-100.2-62.8l44-15.4
				c8.9,32,31.6,40.5,55.5,40.5s35.5-8.5,35.5-20.8s-10.8-16.2-33.2-20.8l-19.3-3.9c-40.1-8.1-72.1-24.3-72.1-60.5
				S1150.3,519,1195.1,519z"/>
		</g>
	</g>
	<g>
		<path class="st8" d="M568.6,390.4c-6.8,0-11.8-5.5-11.8-12V250.8c0-6.6,5-12,11.8-12h79.1c1.1,0,2,0.4,2.6,1.1
			c0.7,0.9,1.1,1.8,1.1,2.8c0,2-1.8,3.7-3.7,3.7h-45.6c-2.2,0-3.9,0.7-5.3,2.2c-1.5,1.5-2.2,3.3-2.2,5.3v52.4c0,2,0.7,3.7,2.2,5.3
			c1.3,1.5,3.1,2.2,5.3,2.2h26.5c2.2,0.4,3.7,1.3,3.7,3.7c0,2-1.8,3.7-3.7,3.7h-26.5c-2.2,0-3.9,0.7-5.3,2.2
			c-1.5,1.5-2.2,3.3-2.2,5.3v46.7c0,2,0.7,3.7,2.2,5.3c1.3,1.5,3.1,2.2,5.3,2.2h45.6c2,0,3.7,1.8,3.7,3.7c0,2.2-1.5,3.9-3.7,3.9
			h-79.1V390.4z"/>
		<path class="st8" d="M773.6,385.8c0.2,0.2,0.2,0.9,0.2,2c-0.2,1.1-1.1,2-2.6,2.6c-2.4,0.2-3.3-0.2-3.7-1.1
			c-0.7-0.7-0.9-1.3-1.1-1.5c0-0.2-0.4-1.8-1.1-4.2c-0.9-2.4-1.8-5.3-2.6-8.3c-1.1-3.3-2.2-7.2-3.5-11.6c-0.7-2.4-2-4.2-3.9-5.7
			c-2-1.3-4.2-2-6.6-2h-30.4c-2.4,0-4.6,0.7-6.6,2c-2,1.5-3.3,3.3-3.9,5.7l-5.9,20.2c-1.3,3.7-4.4,6.1-8.3,6.1h-21.7
			c-2.8,0-5.3-1.1-6.8-3.5c-1.8-2.2-2.2-4.6-1.3-7.4l40.3-134.3c1.3-3.5,4.2-6.1,8.1-6.1h11c4.4,0,7.2,2,8.3,6.1L773.6,385.8z
			 M748.6,348.3c1.5,0,2.6-0.7,3.5-1.8c0.9-1.1,1.1-2.4,0.7-3.9L737.7,292c-0.7-2-2.2-3.1-4.4-3.1c-2,0-3.5,1.1-4.2,3.1L714,342.6
			c-0.4,1.5-0.2,2.8,0.7,3.9s2,1.8,3.5,1.8H748.6z"/>
		<path class="st8" d="M824,390.8c-13.4,0-25-4.8-34.4-14.2c-0.7-0.7-1.5-3.1-1.5-4.2c0-1.3,2-3.1,3.3-3.1c0.9,0,1.8,0.2,2.6,0.9
			c8.1,7.9,18.6,12.9,30,12.9c5.5,0,9.6-0.7,9.6-7v-68.3c0-3.7-1.5-5.7-4.8-6.1c-0.7-0.2-1.5-0.2-2.4-0.2H824
			c-8.5,0-17.3-3.5-23.2-9.9c-6.4-5.9-9.9-14.7-9.9-23.2c0-18.6,14.9-33.1,33.1-33.1c8.8,0,17.3,3.3,23.2,9.6
			c0.9,0.9,1.8,2.4,1.8,3.7c-0.2,0.7-0.7,1.5-1.5,2.2c-0.7,0.7-1.3,0.9-2.4,0.9c-0.7,0-1.5-0.2-2.2-0.7c-5.7-5.7-11.6-8.1-18.8-8.1
			c-14,0-25.4,11.4-25.4,25.4s11.6,25.2,25.4,25.2c26.9,0,48.6,21.5,48.6,48.6C872.6,369.3,850.9,390.8,824,390.8z"/>
		<path class="st8" d="M964.2,321.4c-1.8,3.7-2.6,7.7-2.6,12v45.1c0,6.8-5.3,12-12,12h-14c-6.8,0-11.8-5.5-11.8-12v-45.1
			c0-3.9-0.9-8.1-2.8-12.3L885.1,244c-0.2-0.7-0.4-1.3-0.4-2s0-1.3,0.2-2c0.2-0.4,0.7-0.9,1.3-1.3c0.9-0.4,1.5-0.7,2.2-0.7
			c1.5,0,3.5,1.3,3.9,2.8c0.2,0.2,0.9,1.8,2.2,4.6c3.9,9.2,8.3,18.4,12.7,27.6c2.8,5.9,5.5,12,8.3,18.2
			c6.8,14.7,14.2,31.1,22.8,49.3c0.9,1.8,2.2,2.6,4.2,2.6c2.2,0,3.5-0.9,4.2-2.6l46-99.7c0.2-0.2,0.4-0.9,1.1-1.5
			c0.4-0.7,1.3-1.1,2.4-1.1c2.2,0,3.7,1.1,4.2,3.5c0,0.7,0,1.3-0.2,2L964.2,321.4z"/>
	</g>
</g>
<g id="Layer_1">
	<g id="Fertiger_x5F_Schluessel_1_">
		<g id="Schuessel_x5F_ganz_1_">
			<g id="Grundlayout_1_">
				<g>
					<polygon class="st9" points="412.5,446.8 412.5,724.2 369.9,762.3 369.9,470.7 					"/>
					<polygon class="st6" points="327.7,446.8 327.7,724.2 369.9,762.3 369.9,470.7 					"/>
				</g>
				<g>
					<polygon class="st10" points="369.9,138.6 225.6,219.3 225.6,389.5 369.9,470.7 					"/>
					<polygon class="st10" points="369.9,138.6 514.1,219.3 514.1,389.5 369.9,470.7 					"/>
				</g>
				<g>
					<polygon class="st10" points="412.5,551.9 444.8,583.8 412.5,616 					"/>
					<polyline class="st10" points="412.5,670.2 412.5,606.1 444.8,637.9 					"/>
					<polyline class="st11" points="412.5,724.1 412.5,670.2 417.6,665.1 444.8,691.9 					"/>
				</g>
			</g>
			<g id="Verschoenerung_1_">
				<g id="SchluesselKopf_2_">
					<g>
						<polygon class="st12" points="369.9,172.7 225.6,219.3 369.9,138.6 						"/>
						<polygon class="st12" points="225.6,219.3 225.6,389.5 268.9,352.5 						"/>
						<polygon class="st13" points="268.9,352.5 225.6,219.3 312.6,266.9 						"/>
						<polygon class="st6" points="312.6,266.9 369.9,172.7 225.6,219.3 						"/>
						<polygon class="st6" points="268.9,352.5 369.9,470.7 225.6,389.5 						"/>
						<polygon class="st14" points="312.6,266.9 369.9,298 369.9,172.7 						"/>
						<polygon class="st15" points="268.9,352.5 369.8,380.1 369.9,470.7 						"/>
						<polygon class="st13" points="268.9,352.5 312.6,266.9 369.9,298 369.8,380.1 						"/>
					</g>
					<g>
						<polygon class="st13" points="369.9,172.7 514.1,219.3 369.9,138.6 						"/>
						<polygon class="st16" points="514.1,219.3 514.1,389.5 470.9,352.5 						"/>
						<polygon class="st7" points="470.9,352.5 514.1,219.3 427.1,266.9 						"/>
						<polygon class="st6" points="427.1,266.9 369.9,172.7 514.1,219.3 						"/>
						<polygon class="st11" points="470.9,352.5 369.9,470.7 514.1,389.5 						"/>
						<polygon class="st14" points="427.1,266.9 369.9,298 369.9,172.7 						"/>
						<polygon class="st7" points="470.9,352.5 369.9,380.1 369.9,470.7 						"/>
						<polygon class="st9" points="470.9,352.5 427.1,266.9 369.9,298 369.9,380.1 						"/>
					</g>
				</g>
				<g id="Unten_2_">
					<polyline class="st7" points="444.8,583.8 369.9,509.7 369.9,563.3 417.6,611 444.8,583.8 					"/>
					<polygon class="st17" points="417.6,611 369.9,658.4 369.8,563.3 					"/>
					<polyline class="st16" points="444.8,637.9 369.9,713 369.9,658.4 417.6,611 444.8,637.9 					"/>
					<polygon class="st18" points="369.9,470.7 328.1,512.4 328.1,446.8 					"/>
					<polygon class="st19" points="343.9,738.9 369.9,713 369.9,762.3 					"/>
					<polygon class="st16" points="412.5,551.9 412.5,606.1 417.6,611 444.8,583.8 					"/>
				</g>
			</g>
		</g>
		<g id="Schloss_1_">
			<path class="st20" d="M408,303.6v-36.4c0-21.1-17.1-38.2-38.2-38.2s-38.2,17.1-38.2,38.2v36.4c-14,11.2-22.9,28.4-22.9,47.7
				c0,33.8,27.4,61.2,61.2,61.2s61.2-27.4,61.2-61.2C431,332,422,314.8,408,303.6z M346.9,267.2c0-12.6,10.3-22.9,22.9-22.9
				s22.9,10.3,22.9,22.9v27.4c-7.1-2.9-14.8-4.5-22.9-4.5s-15.9,1.6-22.9,4.5V267.2z M369.8,397.2c-25.3,0-45.9-20.6-45.9-45.9
				s20.6-45.9,45.9-45.9s45.9,20.6,45.9,45.9C415.7,376.6,395.1,397.2,369.8,397.2z M385.1,351.3c0,8.4-6.9,15.3-15.3,15.3
				s-15.3-6.9-15.3-15.3s6.9-15.3,15.3-15.3C378.3,336,385.1,342.9,385.1,351.3z"/>
		</g>
	</g>
</g>
<g id="Wolken2">
	<g>
		<path id="MobileMe_1_" class="st21" d="M115.1,427.6c-0.1-1.6-0.2-3.2-0.2-4.9c0-39.2,15.9-67.6,55.2-71s68.8,17.3,79.8,42.2
			c6.2-5.3,20.6-8,28.7-5.7c18.8,5.3,28.3,16.6,29.5,32.8c0.1,2.1-0.2,4.1-0.5,6.1c26.6,4.2,47,27.5,47,55.5c0,31-25,56.2-55.7,56.2
			H126.3c-30.8,0-55.7-25.1-55.7-56.2C70.5,455.4,89.7,432.8,115.1,427.6z"/>
	</g>
</g>
<g>
	<path class="st8" d="M321,819v53h13.1v8H321v15.5h-9v-15.5h-40.4v-7.6l34.8-53.3H321z M281.2,872h30.9v-44.9h-1.3L281.2,872z"/>
	<path class="st8" d="M368.7,817.5c17.4,0,27.8,10.9,27.8,31.1v17.3c0,20.4-10.5,31.1-27.8,31.1c-17.4,0-27.8-10.7-27.8-31.1v-17.3
		C340.9,828.4,351.4,817.5,368.7,817.5z M349.7,866.4c0,14.2,6.3,22.6,19,22.6c12.9,0,19-8.6,19-22.6v-18.3c0-14.1-6.6-22.7-19-22.7
		c-12.4,0-19,8.7-19,22.7V866.4z"/>
	<path class="st8" d="M453.2,819v53h13.1v8h-13.1v15.5h-9v-15.5h-40.4v-7.6l34.8-53.3H453.2z M413.4,872h30.9v-44.9H443L413.4,872z"
		/>
	<path class="st8" d="M538.3,819c13.6,0,24,8.5,24,22.7s-10.5,22.8-24,22.8h-20.2v30.9h-8.8V819H538.3z M518.1,856.5h19.2
		c10,0,16-5.5,16-14.7c0-9.2-6-14.7-16-14.7h-19.2V856.5z"/>
	<path class="st8" d="M593.1,840.6c14,0,22.4,8.1,22.4,21v33.8h-8v-8.2h-1.1c-2.8,4.6-8.4,9.7-19.3,9.7c-11.1,0-19.4-5.5-19.4-15.5
		c0-10.2,8.7-14.5,19.4-15.9l20.2-2.7v-1.6c0-8.1-5.1-13.4-14.4-13.4c-9.4,0-14.3,5.3-16.4,12.7l-8-2.7
		C571.6,848.7,579.2,840.6,593.1,840.6z M588.2,890.2c10.8,0,19.1-6.4,19.1-18.2v-2.6l-19.2,2.6c-7,1-12.1,3.6-12.1,9.2
		C575.9,886.8,580.6,890.2,588.2,890.2z"/>
	<path class="st8" d="M681.9,842.2v51c0,14.7-10,25.7-26.3,25.7c-14.2,0-22.2-6.7-27.3-15l7.3-4.3c3.3,6.2,9.6,11.8,19.5,11.8
		c10.6,0,18.3-6.2,18.3-18.8v-7.2h-1.1c-3.1,5-9,10.4-20,10.4c-14,0-25.1-10.8-25.1-27.6c0-16.7,11.1-27.5,25.1-27.5
		c11,0,16.9,5.2,20.2,10.7h1.1v-9.2H681.9z M673.7,868.1c0-12.2-8-20.2-19.1-20.2c-11,0-18.7,7.8-18.7,20.2
		c0,12.6,7.6,20.2,18.7,20.2C665.7,888.3,673.7,880.5,673.7,868.1z"/>
	<path class="st8" d="M721,840.6c15.1,0,25.7,10,25.7,26.2v4.4H703c0.7,11.1,7.9,18.3,18.7,18.3c9.4,0,14.1-4.9,16.7-10.8l7.3,3.7
		c-3.6,6.9-9.7,14.5-23.9,14.5c-16.4,0-27.5-12.2-27.5-28.6C694.3,852.5,705.5,840.6,721,840.6z M738,864.3
		c-0.4-10.5-7.1-16.3-16.9-16.3c-10,0-16.8,6.3-18,16.3H738z"/>
	<path class="st8" d="M800.6,842.2v9h1.1c2.5-5,7.9-10,18.9-10c11.7,0,21.1,7.8,21.1,22.1v32.3h-8.3v-31.8c0-10.7-5.8-15.4-15-15.4
		c-10.3,0-17.6,6.9-17.6,20.2v27h-8.4v-53.3H800.6z"/>
	<path class="st8" d="M880.8,840.6c16.2,0,27.3,11.4,27.3,28.2c0,16.7-11.1,28.2-27.3,28.2s-27.2-11.5-27.2-28.2
		C853.6,852,864.6,840.6,880.8,840.6z M880.8,889.5c11.4,0,18.9-8.4,18.9-20.7c0-12.4-7.5-20.7-18.9-20.7s-18.9,8.6-18.9,20.7
		C861.9,881.5,869.4,889.5,880.8,889.5z"/>
	<path class="st8" d="M913.2,842.2h16.5v-19.1h8.3v19.1h17.6v7H938v36c0,2.2,1.1,3.3,3.1,3.3h12.1v7h-14.7c-5.3,0-8.7-3.4-8.7-9
		v-37.3h-16.5V842.2z"/>
	<path class="st8" d="M1012.1,842.2V828c0-5.6,3.4-9,8.7-9h14.1v7h-11.4c-2,0-3.1,1.1-3.1,3.3v12.9h16.9v7h-16.9v46.3h-8.4v-46.3
		h-16.6v-7H1012.1z"/>
	<path class="st8" d="M1071.6,840.6c16.2,0,27.3,11.4,27.3,28.2c0,16.7-11.1,28.2-27.3,28.2s-27.2-11.5-27.2-28.2
		C1044.4,852,1055.4,840.6,1071.6,840.6z M1071.6,889.5c11.4,0,18.9-8.4,18.9-20.7c0-12.4-7.5-20.7-18.9-20.7s-18.9,8.6-18.9,20.7
		C1052.7,881.5,1060.3,889.5,1071.6,889.5z"/>
	<path class="st8" d="M1152.2,895.4v-9h-1.1c-2.6,5-8,9.9-19,9.9c-11.7,0-21.1-7.6-21.1-21.9v-32.3h8.3v31.8
		c0,10.7,5.8,15.4,15.1,15.4c10.2,0,17.6-6.9,17.6-20.2v-27h8.3v53.3H1152.2z"/>
	<path class="st8" d="M1184.4,842.2v9h1.1c2.5-5,7.9-10,18.9-10c11.7,0,21.1,7.8,21.1,22.1v32.3h-8.3v-31.8c0-10.7-5.8-15.4-15-15.4
		c-10.3,0-17.6,6.9-17.6,20.2v27h-8.4v-53.3H1184.4z"/>
	<path class="st8" d="M1291.9,895.4h-8.2v-9.3h-1.1c-3.3,5.6-9.1,10.8-20.2,10.8c-14,0-25.1-11-25.1-28.2
		c0-17.3,11.1-28.2,25.1-28.2c11.1,0,16.9,5.2,20,10.4h1.1v-32h8.4V895.4z M1245.9,868.8c0,12.9,7.6,20.7,18.7,20.7
		c11.1,0,19.1-8,19.1-20.7c0-12.8-8-20.9-19.1-20.9C1253.5,847.9,1245.9,855.9,1245.9,868.8z"/>
</g>
</svg>
